<svg width="42" height="36" viewBox="0 0 42 36" fill="none" xmlns="http://www.w3.org/2000/svg">
<path d="M29.75 33.75V30.25C29.75 28.3935 29.0125 26.613 27.6997 25.3003C26.387 23.9875 24.6065 23.25 22.75 23.25H8.75C6.89348 23.25 5.11301 23.9875 3.80025 25.3003C2.4875 26.613 1.75 28.3935 1.75 30.25V33.75M40.25 33.75V30.25C40.2488 28.699 39.7326 27.1924 38.7824 25.9666C37.8322 24.7408 36.5017 23.8652 35 23.4775M28 2.4775C29.5057 2.86303 30.8403 3.73873 31.7934 4.96654C32.7464 6.19436 33.2637 7.70445 33.2637 9.25875C33.2637 10.813 32.7464 12.3231 31.7934 13.551C30.8403 14.7788 29.5057 15.6545 28 16.04M22.75 9.25C22.75 13.116 19.616 16.25 15.75 16.25C11.884 16.25 8.75 13.116 8.75 9.25C8.75 5.38401 11.884 2.25 15.75 2.25C19.616 2.25 22.75 5.38401 22.75 9.25Z" stroke="#757575" stroke-width="4" stroke-linecap="round" stroke-linejoin="round"/>
</svg>
