<svg width="80" height="74" viewBox="0 0 80 74" fill="none" xmlns="http://www.w3.org/2000/svg">
<g clip-path="url(#clip0_188_42)">
<path d="M37.377 1.7627C37.4576 2.23758 37.3824 2.75608 37.3701 3.23719L37.2749 2.77154C36.5375 2.37128 31.1892 3.6407 30.1674 3.9426C26.8972 4.90898 24.0471 6.35186 21.1788 8.1651C20.9089 8.33568 20.1181 8.72489 19.9795 8.99659C19.9717 9.01191 19.9651 9.02779 19.9579 9.04337C19.581 9.05616 19.3858 8.8348 19.1226 8.60376C22.6837 5.59812 28.0226 3.42713 32.5537 2.48218C34.1417 2.15097 35.7728 2.00412 37.377 1.7627Z" fill="#86DFFC"/>
<path d="M41.4907 1.76794C48.075 2.31966 54.9448 4.37253 60.1502 8.57627C59.7978 8.84372 59.5135 8.79072 59.1198 8.95317C59.0955 8.92941 59.0718 8.90505 59.0464 8.88288C57.8302 7.83143 54.1373 5.71746 52.6464 5.10152C49.9878 4.00333 44.4381 2.5836 41.5629 2.70911C41.4853 2.41674 41.5036 2.07068 41.4907 1.76794Z" fill="#86DFFC"/>
<path d="M19.0894 66.5066C19.5242 66.334 19.9815 66.2196 20.4314 66.0931C21.1674 66.6693 21.9752 67.1032 22.7869 67.5616C25.9518 69.3489 29.2241 70.6307 32.7846 71.3848C33.4871 71.5268 34.1947 71.6352 34.9074 71.7099C35.3685 71.76 35.8701 71.7402 36.3133 71.8783C36.7249 72.2103 37.2502 72.4539 37.3967 72.9887C32.1341 72.3733 28.0346 71.3495 23.2974 68.9222C22.141 68.3298 20.1978 66.7283 19.0894 66.5066Z" fill="#86DFFC"/>
<path d="M58.7306 66.1561C59.1216 66.2631 59.5273 66.3413 59.8643 66.575C58.7569 67.2525 57.7436 68.0465 56.6041 68.685C51.6468 71.4634 46.7476 72.4366 41.1836 73.0993C41.3016 73.0181 41.3975 72.9292 41.4952 72.8243C41.8446 72.4492 42.2853 72.1912 42.6407 71.8208C42.6916 71.852 42.7246 71.8748 42.7851 71.8829C43.3439 71.9578 44.176 71.7585 44.7464 71.6812C49.4646 71.0421 54.9031 68.9963 58.7306 66.1561Z" fill="#86DFFC"/>
<path d="M58.93 59.3609C59.7843 58.8225 60.9099 58.5992 61.9035 58.815C62.0116 58.8375 62.1182 58.8653 62.2235 58.8983C62.3288 58.9312 62.4321 58.9693 62.5336 59.0124C62.6351 59.0556 62.7343 59.1036 62.8311 59.1566C62.928 59.2095 63.022 59.267 63.1131 59.3291C63.2044 59.3911 63.2923 59.4575 63.3768 59.5284C63.4615 59.5991 63.5425 59.6738 63.6198 59.7525C63.6973 59.831 63.7706 59.9132 63.8397 59.9991C63.909 60.085 63.9739 60.1741 64.0344 60.2664C64.1962 60.5163 64.3476 60.7949 64.4377 61.0783C64.3796 61.6273 64.3805 62.1085 64.6178 62.6154C64.1279 64.1082 63.4178 65.3615 61.9673 66.1019C61.3917 66.3958 60.518 66.6505 59.8643 66.575C59.5272 66.3413 59.1215 66.2631 58.7305 66.1561C58.2334 65.9173 57.8289 65.6395 57.4741 65.2075C56.8812 64.4845 56.6325 63.5461 56.7203 62.6217C56.8305 61.4586 57.3687 60.6124 58.2586 59.881C58.5246 59.7297 58.7263 59.5904 58.93 59.3609Z" fill="#D5F9FC"/>
<path d="M60.6196 59.7126C61.2976 59.6431 61.9604 59.6758 62.5693 60.0176C63.1547 60.3466 63.5547 60.8973 63.7234 61.5439C63.751 61.6498 63.7731 61.7569 63.7899 61.8651C63.8067 61.9732 63.8181 62.0819 63.8241 62.1911C63.8301 62.3004 63.8307 62.4098 63.8259 62.5192C63.8209 62.6285 63.8106 62.7372 63.795 62.8455C63.7792 62.954 63.7582 63.0612 63.7318 63.1673C63.7054 63.2736 63.6739 63.3782 63.6371 63.4813C63.6002 63.5844 63.5583 63.6854 63.5116 63.7842C63.4646 63.8833 63.413 63.9797 63.3567 64.0734C62.8161 64.9896 62.0024 65.5104 60.9866 65.7675C60.2573 65.8166 59.529 65.7519 58.8973 65.3504C58.32 64.983 57.9179 64.3715 57.7701 63.7069C57.5862 62.8809 57.831 62.0087 58.278 61.3063C58.8215 60.4524 59.6392 59.9254 60.6196 59.7126Z" fill="#1DA1F5"/>
<path d="M39.9752 65.6907C40.4016 65.7504 40.7509 65.8432 41.1378 66.0419C41.4002 66.1537 41.6546 66.2807 41.9096 66.4083C42.7548 67.12 43.2978 68.0086 43.3924 69.1337C43.47 70.0539 43.1968 71.0768 42.6407 71.8208C42.2853 72.1911 41.8446 72.4491 41.4952 72.8242C41.3975 72.9291 41.3017 73.0181 41.1836 73.0993C39.8383 73.5799 38.7333 73.3474 37.3969 72.9887C37.2504 72.4539 36.7252 72.2103 36.3135 71.8783C35.7337 71.2053 35.4488 70.2118 35.4844 69.3327C35.5285 68.2382 36.0978 67.2623 36.8957 66.539C37.3094 66.4293 37.5381 66.2567 37.8176 65.9337C38.1721 65.7947 38.5097 65.7168 38.8819 65.6482C39.2588 65.8052 39.5842 65.7809 39.9752 65.6907Z" fill="#D5F9FC"/>
<path d="M38.9508 66.5286C39.6184 66.4735 40.262 66.5595 40.8681 66.8588C40.9616 66.9045 41.0526 66.9548 41.1411 67.0095C41.2296 67.0644 41.315 67.1236 41.3973 67.1872C41.4798 67.2507 41.5588 67.3183 41.6343 67.39C41.71 67.4615 41.7818 67.5367 41.8497 67.6156C41.9176 67.6945 41.9813 67.7766 42.0409 67.8619C42.1004 67.9472 42.1555 68.0353 42.2063 68.1262C42.257 68.2171 42.3029 68.3104 42.3441 68.406C42.3852 68.5015 42.4215 68.5989 42.4528 68.6982C42.7096 69.5087 42.6092 70.3536 42.2051 71.0982C41.7346 71.965 40.9817 72.4459 40.0609 72.7242C39.302 72.7944 38.653 72.7437 37.9704 72.3578C37.225 71.9362 36.6413 71.245 36.4172 70.412C36.2021 69.6129 36.3441 68.7272 36.769 68.0198C37.2639 67.1959 38.0451 66.7506 38.9508 66.5286Z" fill="#1DA1F5"/>
<path d="M14.3848 13.3774C14.5105 13.6665 14.5775 13.9775 14.5631 14.295C11.3513 18.3406 8.22227 23.2586 7.18433 28.3987C7.02958 29.1651 7.26904 29.9351 6.37481 30.0377C4.99788 30.1962 3.05499 30.1612 1.6447 30.1378C1.64075 30.9842 1.58519 31.8687 1.6465 32.7104C1.55226 34.7823 1.57454 36.8662 1.56204 38.9399C1.55593 39.9547 1.45225 41.0774 1.56004 42.0815C1.44943 43.4906 1.49549 44.9324 1.48885 46.3457C2.96139 46.477 5.89523 46.5198 7.19362 46.903C7.55075 50.8464 10.7123 56.1207 13.0969 59.2647C13.541 59.8505 14.1197 60.3161 14.5622 60.8821C14.5695 61.2629 14.5811 61.6803 14.4145 62.0326C10.5346 57.952 8.21163 53.2485 6.40084 47.9823C5.36378 47.8657 0.925616 47.7114 0.342892 47.324C0.0394553 46.3388 0.283319 42.5926 0.288225 41.345L0.333556 34.0176C0.34371 32.7032 0.313499 31.3729 0.375956 30.0602C0.391851 29.7261 0.424453 29.3812 0.538356 29.065C0.981247 28.7808 5.459 28.851 6.32078 28.8362C6.39413 27.85 6.79976 26.7703 7.11641 25.8316C8.42904 21.9404 10.4704 18.0494 13.0479 14.8477C13.4621 14.3331 13.9518 13.877 14.3848 13.3774Z" fill="#86DFFC"/>
<path d="M49.6034 48.7557C49.9594 48.7956 50.2962 48.8037 50.6503 48.7461C50.858 48.7126 51.0165 48.5969 51.2322 48.6179C52.813 51.1123 54.2863 53.6854 55.8021 56.2203C56.4523 57.307 57.0665 58.5478 57.8396 59.5422C57.9549 59.6902 58.0939 59.7924 58.2587 59.8811C57.3688 60.6125 56.8307 61.4586 56.7205 62.6218C56.6327 63.5461 56.8814 64.4845 57.4743 65.2075C57.8291 65.6396 58.2336 65.9174 58.7306 66.1562C54.9032 68.9963 49.4647 71.0421 44.7465 71.6812C44.176 71.7586 43.344 71.9578 42.7852 71.8829C42.7246 71.8748 42.6917 71.852 42.6408 71.8209C43.1969 71.0769 43.4701 70.054 43.3925 69.1338C43.2978 68.0087 42.7549 67.1201 41.9097 66.4084C42.1655 66.2508 42.2842 66.0636 42.4196 65.7999C42.8298 65.0005 43.1534 64.1394 43.5031 63.3112L45.3404 58.9523C46.7687 55.5725 48.3118 52.1882 49.6034 48.7557Z" fill="#002860"/>
<path d="M27.504 45.3204C27.8352 45.345 28.1221 45.4136 28.4381 45.5143C28.6302 45.5344 28.8708 45.5299 29.0419 45.6228C29.9787 47.4511 30.7254 49.41 31.5337 51.3004L35.7351 61.1059L37.1523 64.4231C37.3573 64.9043 37.5382 65.4984 37.8175 65.9338C37.5379 66.2568 37.3093 66.4293 36.8955 66.539C36.0976 67.2623 35.5283 68.2382 35.4843 69.3327C35.4486 70.2118 35.7336 71.2054 36.3134 71.8783C35.8702 71.7402 35.3686 71.76 34.9075 71.7099C34.1948 71.6352 33.4872 71.5269 32.7847 71.3848C29.2242 70.6307 25.9519 69.3489 22.787 67.5616C21.9753 67.1032 21.1675 66.6693 20.4315 66.0932C19.9816 66.2196 19.5243 66.3341 19.0895 66.5067C18.2899 66.5992 17.32 66.284 16.6563 65.8529C15.2579 64.9447 14.7383 63.5961 14.4146 62.0326C14.5812 61.6803 14.5695 61.2629 14.5623 60.8821C14.5903 60.822 14.6216 60.7636 14.6561 60.7071C15.1823 59.8379 15.8892 59.1038 16.911 58.8557C17.5674 58.6963 18.883 58.7107 19.4851 59.0693C19.8771 58.4491 23.6321 50.2064 23.6424 50.0311C23.6457 49.9754 23.6124 49.8813 23.6009 49.8238C24.0142 49.8175 25.391 49.7055 25.6763 49.8604L26.1567 49.8735C26.5982 49.9011 27.0522 49.8813 27.4951 49.8819C27.5402 48.9816 27.4239 46.3679 27.677 45.695C27.6039 45.5859 27.5571 45.4415 27.504 45.3204Z" fill="#002860"/>
<path d="M23.6007 49.8239C24.014 49.8176 25.3908 49.7055 25.6761 49.8604C25.4216 49.8646 25.2272 49.8319 25.0038 49.965C24.0561 51.9461 23.163 53.9569 22.2398 55.95C21.6555 57.2114 20.9628 58.4962 20.506 59.808C20.1036 59.6716 19.7638 59.381 19.4849 59.0694C19.8769 58.4492 23.6319 50.2065 23.6422 50.0312C23.6455 49.9755 23.6122 49.8814 23.6007 49.8239Z" fill="#86DFFC"/>
<path d="M27.5039 45.3204C27.8351 45.345 28.122 45.4136 28.438 45.5143C28.6301 45.5344 28.8708 45.5299 29.0418 45.6228C29.9786 47.4511 30.7253 49.41 31.5337 51.3004L35.735 61.1059L37.1523 64.4231C37.3572 64.9043 37.5382 65.4984 37.8174 65.9338C37.5379 66.2568 37.3093 66.4293 36.8955 66.539C36.2492 65.7947 35.3078 63.1287 34.8445 62.0695L27.9619 45.9967L27.6769 45.695C27.6039 45.5859 27.557 45.4415 27.5039 45.3204Z" fill="#86DFFC"/>
<path d="M14.5623 60.8821C14.5903 60.822 14.6216 60.7637 14.6561 60.7072C15.1823 59.8379 15.8892 59.1039 16.911 58.8558C17.5674 58.6964 18.883 58.7107 19.4851 59.0694C19.764 59.381 20.1038 59.6716 20.5062 59.808C21.5002 60.9819 22.2195 61.8967 22.0806 63.5275C22.0055 64.4102 21.6296 65.1743 20.944 65.7418C20.7823 65.8757 20.6179 65.9958 20.4315 66.0932C19.9816 66.2197 19.5243 66.3341 19.0895 66.5067C18.2899 66.5993 17.32 66.2841 16.6563 65.8529C15.2579 64.9448 14.7383 63.5961 14.4146 62.0327C14.5812 61.6803 14.5695 61.263 14.5623 60.8821Z" fill="#D5F9FC"/>
<path d="M16.9115 59.7259C17.6642 59.645 18.3945 59.6626 19.089 60.0015C19.2002 60.0561 19.3086 60.1158 19.4141 60.1807C19.5195 60.2458 19.6215 60.3158 19.7202 60.3907C19.8188 60.4658 19.9135 60.5454 20.0043 60.6295C20.0952 60.7138 20.1817 60.8023 20.2639 60.895C20.3461 60.9877 20.4235 61.0842 20.4963 61.1844C20.5691 61.2847 20.6368 61.3883 20.6995 61.4952C20.7621 61.602 20.8194 61.7117 20.8714 61.8241C20.9233 61.9366 20.9697 62.0514 21.0104 62.1684C21.2563 62.8977 21.2593 63.7124 20.8978 64.4048C20.5707 65.0316 20.0206 65.4679 19.3525 65.6782C18.7867 65.8307 18.1367 65.8113 17.5842 65.6258C16.6567 65.3145 15.8586 64.5411 15.4405 63.6641C15.0861 62.9208 15.0166 62.0566 15.3069 61.2797C15.5972 60.5031 16.1803 60.0558 16.9115 59.7259Z" fill="#2BBBFB"/>
<path d="M1.64474 30.1378C3.05502 30.1612 4.99791 30.1962 6.37484 30.0377C7.26907 29.9351 7.02961 29.1651 7.18437 28.3987C8.2223 23.2586 11.3513 18.3406 14.5632 14.295C14.7274 14.7141 14.9134 15.065 15.258 15.3622C15.758 16.0417 16.6485 16.487 17.4651 16.6079C18.317 16.7341 19.5791 16.4431 20.2766 15.9024C20.4381 15.7772 20.5799 15.6061 20.713 15.4522C20.4387 16.99 20.4378 18.4411 21.3644 19.7752C21.781 20.3748 23.2835 21.4069 23.3454 21.8626C23.1724 22.1637 22.7418 22.2927 22.4378 22.4247C21.123 22.7015 19.9625 23.8971 19.2577 24.9788C19.0255 25.3351 18.4697 26.9157 18.3931 26.9817C17.7362 27.0601 17.0265 27.2127 16.5891 27.7584C16.3854 28.0126 16.3276 28.2696 16.372 28.5885C16.4327 29.0247 16.6155 29.3421 16.887 29.6853C19.3392 29.8038 21.9076 29.6784 24.363 29.571C24.1123 30.5744 24.8823 33.8804 25.1285 35.0346C24.5707 35.0469 24.0124 35.0651 23.4546 35.0708L23.4497 39.1622L23.2588 38.8686L23.1947 38.8869L23.1096 39.3267L23.1614 39.6323C23.1505 39.9649 23.1213 40.3077 23.1383 40.6397C23.1472 40.8665 23.1241 41.138 23.2572 41.3279L23.4402 41.4469C23.4509 42.4494 23.3301 49.3992 23.4314 49.7504L23.6009 49.8238C23.6124 49.8813 23.6456 49.9754 23.6423 50.0311C23.632 50.2064 19.8771 58.4491 19.485 59.0693C18.883 58.7107 17.5673 58.6963 16.9109 58.8557C15.8892 59.1038 15.1822 59.8379 14.6561 60.7071C14.6216 60.7636 14.5903 60.8219 14.5623 60.8821C14.1198 60.3161 13.5411 59.8505 13.0969 59.2647C10.7123 56.1207 7.55078 50.8464 7.19366 46.903C5.89526 46.5198 2.96142 46.477 1.48888 46.3457C1.49553 44.9324 1.44946 43.4906 1.56007 42.0815C1.45229 41.0774 1.55597 39.9547 1.56208 38.9399C1.57457 36.8662 1.55229 34.7823 1.64654 32.7104C1.58522 31.8687 1.64078 30.9842 1.64474 30.1378Z" fill="#002860"/>
<path d="M20.9351 42.545C21.1639 42.5543 21.3041 42.5304 21.4779 42.7089C21.9598 43.2042 22.2152 44.0357 22.4801 44.6709C22.0389 44.8677 21.6536 45.0916 21.1602 44.9597L21.3843 44.842C21.6429 44.3017 20.9839 43.1856 20.9351 42.545Z" fill="#1DA1F5"/>
<path d="M20.2856 35.541C20.8992 35.5779 21.5158 36.0747 21.9171 36.5235C22.0042 36.6192 22.0872 36.7183 22.1659 36.821C22.2447 36.9239 22.319 37.0298 22.3888 37.1386C22.4587 37.2475 22.5239 37.3591 22.5844 37.4736C22.6448 37.5881 22.7004 37.7048 22.7511 37.8239C22.8017 37.9431 22.8473 38.0642 22.8878 38.187C22.9283 38.3101 22.9635 38.4345 22.9936 38.5603C23.0236 38.6862 23.0483 38.8131 23.0677 38.9412C23.087 39.069 23.101 39.1975 23.1095 39.3268L23.1612 39.6324C23.1504 39.965 23.1212 40.3078 23.1382 40.6397C23.0998 40.8791 23.124 41.0907 22.9093 41.2408C22.7062 41.3831 22.2374 41.2998 21.9991 41.2504C21.9598 41.242 21.9509 41.2372 21.9179 41.2243C22.0329 38.6329 21.9036 37.5997 20.2856 35.541Z" fill="#1DA1F5"/>
<path d="M4.78232 40.0956C5.30405 40.0899 5.82028 40.1028 6.34124 40.1306C6.50169 41.8951 6.3789 43.7902 6.34888 45.5649C5.88545 45.5736 5.00173 45.6818 4.59277 45.496L4.66298 45.4583C4.87583 45.0334 4.77791 40.8695 4.78232 40.0956Z" fill="#1DA1F5"/>
<path d="M10.2549 32.1429C10.9973 32.1891 11.8314 32.6655 12.3143 33.2099C12.977 33.9575 13.2216 34.9606 13.1515 35.9407C13.0726 37.0445 12.6065 38.1271 11.7612 38.8593C11.3628 39.2042 10.8703 39.473 10.3884 39.6839C11.0854 40.3823 13.2295 44.412 13.9223 45.571C13.4002 45.5719 12.8654 45.5949 12.3462 45.5395C12.1404 44.5259 9.74439 40.8995 9.15086 39.5482L9.27269 39.5119L9.1416 39.4406C9.43167 39.1146 9.86127 38.9253 10.2122 38.6697C11.0101 38.0887 11.4121 37.0913 11.5563 36.1349C11.8096 34.4549 11.2152 33.4475 10.2549 32.1429Z" fill="#1DA1F5"/>
<path d="M21.1598 44.9597C20.9396 45.0486 20.7176 45.1327 20.4939 45.2122C18.9446 45.7528 16.8996 45.8876 15.3913 45.1511C14.284 44.6103 13.4705 43.6006 13.0814 42.4398C12.5414 40.8293 12.7373 38.924 13.5016 37.4172C14.0651 36.3062 15.0483 35.416 16.2416 35.0349C17.6712 34.5779 18.9854 34.877 20.2856 35.5409C21.9036 37.5997 22.0328 38.6328 21.9179 41.2242C20.1125 41.1188 18.2867 41.2269 16.4763 41.1715C16.3874 41.4882 16.6351 41.9406 16.7911 42.2187C16.9705 42.5378 17.2914 42.9132 17.3689 43.2662C18.7377 43.529 19.7252 43.1526 20.9347 42.545C20.9835 43.1856 21.6425 44.3017 21.3839 44.8419L21.1598 44.9597Z" fill="#FDFEFE"/>
<path d="M15.4106 41.1215C15.7656 41.1161 16.1283 41.0921 16.4765 41.1715C16.3876 41.4882 16.6352 41.9407 16.7913 42.2187C16.9707 42.5378 17.2916 42.9133 17.3691 43.2662C17.036 43.2428 16.7211 43.1455 16.4388 42.9663C15.7747 42.545 15.5721 41.8412 15.4106 41.1215Z" fill="#1DA1F5"/>
<path d="M15.4795 39.1565C15.6117 38.5701 15.8167 37.8726 16.2923 37.4741C16.8622 36.9965 17.5141 37.0205 18.2036 37.0741C17.4589 37.6746 16.9053 38.1731 16.7337 39.1682C16.319 39.1856 15.8949 39.1631 15.4795 39.1565Z" fill="#1DA1F5"/>
<path d="M18.2038 37.0742C18.728 37.3004 19.0655 37.5611 19.276 38.1097C19.3998 38.4324 19.4578 38.7962 19.5288 39.1338C18.597 39.1827 17.6666 39.1737 16.7339 39.1683C16.9054 38.1732 17.459 37.6747 18.2038 37.0742Z" fill="#002860"/>
<path d="M1.99853 32.1453C2.00725 31.9239 1.99016 31.6782 2.08682 31.4757C3.09924 31.2438 7.71788 31.2689 8.70401 31.482C9.22161 31.5937 9.78619 31.8958 10.2548 32.1429C11.215 33.4475 11.8094 34.4549 11.5561 36.1349C11.4119 37.0913 11.0099 38.0887 10.212 38.6697C9.8611 38.9253 9.4315 39.1146 9.14143 39.4406L9.27252 39.5119L9.15069 39.5482C9.74422 40.8995 12.1402 44.5259 12.3461 45.5395C11.3505 45.5296 10.3577 45.482 9.36106 45.4853C8.99252 44.6946 6.84897 40.4018 6.34092 40.1307C5.81996 40.1028 5.30374 40.0899 4.782 40.0956C4.7776 40.8695 4.87551 45.0334 4.66266 45.4583L4.59246 45.4961C3.72043 45.4358 2.82438 45.4676 1.94949 45.464C1.95291 45.0469 1.94897 44.6298 1.93765 44.2128C1.82618 44.3797 1.88987 44.5909 1.8846 44.7835C1.8796 44.9666 1.80831 45.2036 1.67257 45.3316C1.53373 44.6047 1.64051 42.9828 1.55998 42.0815C1.4522 41.0775 1.55588 39.9548 1.56199 38.94C1.57448 36.8662 1.5522 34.7823 1.64645 32.7104C1.81233 32.3218 1.76671 31.864 1.76623 31.4487C1.79196 31.4553 1.84332 31.9737 1.97091 32.1175C1.9796 32.1271 1.98932 32.1361 1.99853 32.1453Z" fill="#FDFEFE"/>
<path d="M1.64645 32.7105C1.81233 32.3218 1.76671 31.864 1.76623 31.4487C1.79196 31.4553 1.84332 31.9737 1.97091 32.1175C1.9796 32.1271 1.98932 32.1361 1.99853 32.1454C2.0402 34.4833 1.97932 36.8276 1.96756 39.1662C1.95915 40.8375 2.02086 42.5442 1.93765 44.2128C1.82618 44.3797 1.88987 44.5909 1.8846 44.7836C1.8796 44.9666 1.80831 45.2036 1.67257 45.3316C1.53373 44.6047 1.64051 42.9828 1.55998 42.0815C1.4522 41.0775 1.55588 39.9548 1.56199 38.94C1.57448 36.8663 1.5522 34.7824 1.64645 32.7105Z" fill="url(#paint0_linear_188_42)"/>
<path d="M4.79465 37.896C4.79381 37.2185 4.64684 34.1567 4.91297 33.7923L5.10536 33.7974C5.9432 33.769 6.88082 33.7096 7.68918 33.9796C7.2843 34.326 6.95054 34.2666 6.44451 34.2525C6.43651 34.6945 6.46395 35.1769 6.37706 35.6093C6.3586 36.3739 6.34758 37.1394 6.31824 37.9035C5.81283 37.9203 5.30069 37.8993 4.79465 37.896Z" fill="#1DA1F5"/>
<path d="M5.10547 33.7974C5.94331 33.769 6.88093 33.7096 7.68929 33.9796C7.28441 34.326 6.95065 34.2666 6.44462 34.2525C6.43661 34.6945 6.46406 35.1769 6.37717 35.6093C6.35967 35.0828 6.36836 34.5684 6.40201 34.0425C6.01522 33.9991 5.43209 34.0015 5.10547 33.7974Z" fill="#0E4F9A"/>
<path d="M7.6893 33.9796C8.20948 34.2499 8.55105 34.5714 8.72807 35.1473C8.88915 35.6716 8.81481 36.278 8.55581 36.7583C8.27845 37.2725 7.7666 37.6944 7.20285 37.8553C6.92768 37.9338 6.60178 37.9077 6.31836 37.9035C6.34769 37.1395 6.35872 36.3739 6.37718 35.6093C6.46407 35.1769 6.43662 34.6945 6.44462 34.2526C6.95066 34.2667 7.28441 34.326 7.6893 33.9796Z" fill="#002860"/>
<path d="M38.6168 29.379C42.0801 29.421 45.5612 29.2974 49.0252 29.2417C51.0114 29.2098 53.0797 29.3247 55.0521 29.1205C54.2225 30.0198 53.6559 34.3632 53.0329 35.1734C53.3314 35.482 53.735 35.6737 54.0969 35.8988C55.335 37.3424 55.7044 39.0703 55.5552 40.9436C55.444 42.3347 54.9706 43.6231 53.9831 44.6307C53.16 45.2893 52.4697 45.6668 51.3835 45.7043C51.4255 45.8209 51.4608 45.994 51.5678 46.0645C51.877 46.5469 52.0295 46.9831 52.0238 47.5611C51.7925 47.9482 51.5273 48.2778 51.2322 48.6179C51.0165 48.5969 50.858 48.7125 50.6503 48.7461C50.2962 48.8036 49.9594 48.7955 49.6034 48.7557C48.3117 52.1882 46.7687 55.5725 45.3404 58.9522L43.5031 63.3112C43.1534 64.1394 42.8298 65.0005 42.4196 65.7999C42.2842 66.0635 42.1655 66.2508 41.9097 66.4084C41.6547 66.2808 41.4003 66.1537 41.1378 66.042C40.751 65.8433 40.4016 65.7504 39.9753 65.6908C39.5843 65.781 39.2589 65.8053 38.8819 65.6483C38.5098 65.7169 38.1721 65.7948 37.8177 65.9338C37.5384 65.4985 37.3574 64.9043 37.1525 64.4231L35.7353 61.1059L31.5339 51.3004C30.7255 49.4101 29.9789 47.4511 29.0421 45.6228C28.871 45.5299 28.6304 45.5344 28.4383 45.5143C28.1222 45.4137 27.8353 45.3451 27.5041 45.3205C27.5573 45.4415 27.6041 45.586 27.6772 45.695C27.4241 46.368 27.5404 48.9816 27.4953 49.882C27.0524 49.8814 26.5984 49.9012 26.1569 49.8736L25.6765 49.8604C25.3912 49.7055 24.0143 49.8176 23.6011 49.8239L23.4317 49.7504C23.3304 49.3993 23.4511 42.4495 23.4404 41.4469L23.2574 41.328C23.1243 41.138 23.1474 40.8665 23.1385 40.6397C23.1215 40.3077 23.1508 39.965 23.1616 39.6324L23.1099 39.3268L23.195 38.8869L23.259 38.8686L23.4499 39.1623L23.4548 35.0709C24.0126 35.0652 24.5709 35.0469 25.1287 35.0346C24.8826 33.8805 24.1125 30.5744 24.3632 29.5711C24.6538 29.5047 25.1715 29.4506 25.4521 29.5619C27.3784 29.626 29.3279 29.5316 31.2559 29.5052C33.5234 29.4743 35.803 29.4981 38.0676 29.394C38.2512 29.3255 38.4265 29.3588 38.6168 29.379Z" fill="#002860"/>
<path d="M43.5947 35.1014C43.6031 35.1134 43.6115 35.1254 43.6198 35.1374C43.7244 35.2821 43.8281 35.363 43.9731 35.4628C44.0813 35.6519 44.1073 35.8268 44.1199 36.0423C44.2374 38.0815 44.1328 40.1882 44.1271 42.2334C44.125 43.0355 44.2518 44.8504 44.0747 45.5506C44.0639 45.5939 44.0504 45.6365 44.0342 45.6782C43.8571 45.7286 43.63 45.6653 43.4697 45.5769L43.5338 45.5362C43.7169 45.2441 43.6561 36.1133 43.5947 35.1014Z" fill="#0C7AF0"/>
<path d="M49.8205 45.5035C50.3392 45.5859 50.8581 45.6806 51.3834 45.7043C51.4253 45.8208 51.4607 45.994 51.5676 46.0644C51.8768 46.5468 52.0294 46.9831 52.0237 47.5611C51.7924 47.9482 51.5272 48.2778 51.2321 48.6178C51.0163 48.5969 50.8578 48.7125 50.6502 48.7461C50.296 48.8036 49.9592 48.7955 49.6033 48.7557C49.5658 48.7194 49.582 48.732 49.5404 48.7038C49.2012 48.4737 48.9249 48.2113 48.634 47.9248C48.7053 47.6947 48.6052 47.3435 48.61 47.0934C48.6265 46.2661 49.2644 46.0318 49.7864 45.5365C49.798 45.5257 49.8091 45.5146 49.8205 45.5035Z" fill="#1DA1F5"/>
<path d="M50.0697 46.1304C50.2489 46.1361 50.4469 46.1364 50.6186 46.1903C50.8943 46.2769 51.1621 46.4863 51.2961 46.744C51.3264 46.8029 51.3504 46.8642 51.368 46.928C51.3857 46.9919 51.3966 47.0569 51.4006 47.123C51.4048 47.1891 51.4021 47.255 51.3925 47.3205C51.3829 47.386 51.3667 47.4498 51.3437 47.5119C51.2014 47.908 50.9125 48.0603 50.5506 48.2325C50.3909 48.2352 50.2177 48.2406 50.0616 48.2056C49.7761 48.1412 49.5001 47.9818 49.3419 47.7307C49.1972 47.5015 49.1897 47.239 49.2538 46.981C49.3635 46.5388 49.7053 46.3461 50.0697 46.1304Z" fill="#FDFEFE"/>
<path d="M38.0674 29.394C38.2511 29.3255 38.4263 29.3589 38.6166 29.379C38.8425 29.3968 39.0508 29.4111 39.2653 29.49C39.2955 29.5304 39.3597 29.5947 39.3767 29.639C39.5182 30.0027 39.6188 41.3289 39.6464 42.7905C39.2509 42.9636 38.8683 43.0239 38.4392 43.043L38.234 43.0781C38.1723 42.3129 38.1135 41.5554 38.1174 40.7869C38.2678 39.6881 38.0185 38.516 38.1845 37.4239C38.1866 37.4092 38.1893 37.3945 38.1917 37.3798L38.1678 37.3714L38.2867 37.5111L38.2514 37.6051L38.3185 37.7328C38.3061 35.8419 38.2773 33.9513 38.2322 32.0609C38.219 31.5174 38.0824 30.232 38.1737 29.7612C38.1911 29.6704 38.2936 29.5189 38.3314 29.4225L38.0674 29.394Z" fill="#86DFFC"/>
<path d="M38.1174 40.7868C38.2678 39.688 38.0185 38.5159 38.1845 37.4238C38.1866 37.4091 38.1893 37.3944 38.1917 37.3797L38.1677 37.3713L38.2867 37.511L38.2513 37.605L38.3184 37.7327L38.4392 43.043L38.2339 43.078C38.1722 42.3128 38.1135 41.5553 38.1174 40.7868Z" fill="#001B47"/>
<path d="M48.634 47.9248C48.925 48.2112 49.2012 48.4737 49.5404 48.7038C49.582 48.732 49.5659 48.7194 49.6033 48.7557C48.3116 52.1882 46.7686 55.5724 45.3402 58.9522L43.5029 63.3112C43.1533 64.1393 42.8297 65.0005 42.4195 65.7999C42.2841 66.0635 42.1654 66.2508 41.9095 66.4084C41.6546 66.2808 41.4002 66.1537 41.1377 66.042C41.5982 64.4135 42.4288 62.7799 43.0874 61.2144L46.6086 52.8306C47.2908 51.2123 48.0566 49.5829 48.634 47.9248Z" fill="#86DFFC"/>
<path d="M38.5206 45.7818C38.9355 45.694 39.3017 45.5083 39.6822 45.3279C39.8356 49.2074 39.8332 53.0912 39.9297 56.9716C39.9758 58.7204 40.0064 60.4695 40.0214 62.2187C40.0367 63.3806 40.108 64.5321 39.9752 65.6907C39.5842 65.7809 39.2588 65.8052 38.8819 65.6482C38.7198 64.5153 38.8058 63.2829 38.7794 62.1336C38.7091 59.5802 38.6578 57.0265 38.6254 54.4725L38.4954 48.5578C38.4798 47.6862 38.3537 46.6313 38.5206 45.7818Z" fill="#86DFFC"/>
<path d="M34.5257 35.0556C35.4476 35.0481 36.3974 35.0047 37.3152 35.0898C37.3239 35.0976 37.3322 35.1056 37.3409 35.1131C37.6475 35.3741 37.9971 35.1871 38.0531 35.6944C38.229 37.2863 37.8341 39.2411 38.1176 40.7868C38.1137 41.5554 38.1724 42.3128 38.2341 43.0781L38.4394 43.043C38.8684 43.0238 39.2511 42.9636 39.6466 42.7904C39.8791 42.705 40.1364 42.6241 40.3225 42.4543C40.5266 42.2676 40.6024 42.0291 40.6458 41.7621C40.7678 41.0125 40.7045 40.2014 40.7042 39.4412C40.7036 37.9802 40.6815 36.5172 40.7342 35.0568C41.6301 35.0481 42.7228 34.9322 43.595 35.1014C43.6564 36.1133 43.7173 45.2441 43.5342 45.5362L43.4701 45.577C42.6955 45.4892 41.8575 45.529 41.074 45.5077L40.9787 43.8646C40.6518 44.4513 40.1661 44.8734 39.6822 45.328C39.3017 45.5083 38.9355 45.6941 38.5206 45.7819C38.4071 45.7833 38.2936 45.7829 38.1802 45.7807C37.1776 45.7606 36.2239 45.5413 35.5087 44.7829C35.08 44.3281 34.8097 43.7564 34.6695 43.1512C34.3204 41.6468 34.4687 36.8429 34.5257 35.0556Z" fill="#FDFEFE"/>
<path d="M37.3149 35.0897C37.3236 35.0975 37.332 35.1056 37.3407 35.1131C37.6472 35.3741 37.9969 35.1871 38.0529 35.6944C38.2288 37.2863 37.8339 39.241 38.1173 40.7868C38.1134 41.5553 38.1722 42.3128 38.2339 43.078C38.0247 43.0244 37.8057 42.9615 37.6526 42.8003C37.4309 42.5672 37.3794 42.2031 37.3395 41.8963C37.2292 41.0424 37.2847 40.1453 37.2868 39.2836C37.2858 37.8855 37.2952 36.4876 37.3149 35.0897Z" fill="#1DA1F5"/>
<path d="M45.746 30.5675C46.5832 30.4791 47.7988 30.3596 48.5985 30.6056C49.1387 31.1023 49.2367 31.3348 49.2681 32.0953C49.3161 33.2551 49.1375 34.4264 49.1564 35.5841C49.4512 35.3223 49.8248 35.1167 50.1964 34.9891C50.3116 34.9501 50.4285 34.9169 50.5469 34.8893C50.6654 34.8617 50.7848 34.8401 50.9053 34.8243C51.0259 34.8085 51.147 34.7986 51.2684 34.7946C51.3901 34.7906 51.5115 34.7925 51.6328 34.8003C51.7542 34.8083 51.875 34.8221 51.995 34.8417C52.1149 34.8614 52.2336 34.887 52.3513 34.9184C52.4687 34.9495 52.5844 34.9865 52.6982 35.0292C52.8121 35.0718 52.9237 35.1198 53.0329 35.1733C53.3313 35.482 53.7349 35.6737 54.0969 35.8987C55.3349 37.3423 55.7044 39.0703 55.5552 40.9435C55.444 42.3347 54.9706 43.6231 53.983 44.6307C53.16 45.2893 52.4696 45.6668 51.3835 45.7043C50.8582 45.6806 50.3393 45.5859 49.8206 45.5035C49.21 45.2611 48.6701 44.7218 48.2602 44.2229C48.2587 44.6817 48.2359 45.1422 48.2224 45.6009C47.3898 45.5164 46.5439 45.5434 45.7077 45.5443C45.7991 40.5561 45.583 35.5497 45.746 30.5675Z" fill="#FDFEFE"/>
<path d="M48.9256 42.3496C48.4834 41.5239 48.5187 39.884 48.6638 38.9687C48.756 38.3841 48.9382 37.9712 49.4212 37.6198C49.5033 37.8295 49.5641 37.8999 49.4683 38.1234C49.3877 38.3116 49.2435 38.4626 49.1839 38.6633C48.8366 39.8313 49.3583 41.2186 48.9256 42.3496Z" fill="#0E4F9A"/>
<path d="M48.5986 30.6056C49.1388 31.1024 49.2368 31.3349 49.2682 32.0953C49.3162 33.2552 49.1376 34.4264 49.1565 35.5842C49.0141 35.8017 48.7855 36.012 48.6123 36.2101C48.5206 34.3443 48.5902 32.4738 48.5986 30.6056Z" fill="#1DA1F5"/>
<path d="M52.1721 38.3916C52.5961 38.8192 52.719 39.5356 52.7157 40.1228C52.7109 41.0205 52.3972 41.9374 51.7389 42.5672C51.4908 42.8048 51.2514 42.9516 50.9173 43.0283C50.858 43.0418 50.7999 43.0556 50.7402 43.0673C51.261 41.5401 51.5522 39.8762 52.1721 38.3916Z" fill="#86DFFC"/>
<path d="M49.4214 37.6198C49.9814 37.3487 50.5563 37.1236 51.1835 37.3352C51.6011 37.4763 51.9083 37.8125 52.0973 38.2023C52.1273 38.2643 52.1521 38.3257 52.1722 38.3917C51.5523 39.8763 51.2611 41.5401 50.7403 43.0673C50.5584 43.1935 50.2513 43.269 50.0308 43.2348C49.5403 43.1587 49.2035 42.7197 48.9258 42.3497C49.3584 41.2186 48.8368 39.8314 49.1841 38.6634C49.2437 38.4627 49.3878 38.3117 49.4684 38.1235C49.5643 37.9 49.5035 37.8296 49.4214 37.6198Z" fill="#002860"/>
<path d="M38.0676 29.3939L38.3315 29.4224C38.2938 29.5189 38.1913 29.6703 38.1739 29.7611C38.0825 30.2319 38.2192 31.5173 38.2323 32.0608C38.2775 33.9512 38.3063 35.8419 38.3186 37.7327L38.2515 37.6051L38.2869 37.511L38.1679 37.3714L38.1919 37.3797C38.1895 37.3944 38.1868 37.4091 38.1847 37.4238C38.0187 38.5159 38.268 39.6881 38.1176 40.7868C37.8341 39.241 38.2291 37.2863 38.0532 35.6944C37.9971 35.1871 37.6475 35.3741 37.341 35.1131C37.3323 35.1056 37.3239 35.0975 37.3152 35.0897C36.3974 35.0046 35.4476 35.0481 34.5257 35.0556C34.4688 36.8428 34.3204 41.6467 34.6695 43.1511C34.8097 43.7564 35.08 44.3281 35.5088 44.7829C36.224 45.5412 37.1777 45.7606 38.1802 45.7806C38.2937 45.7828 38.4071 45.7832 38.5206 45.7818C38.3537 46.6313 38.4798 47.6863 38.4954 48.5579L38.6255 54.4725C38.6578 57.0265 38.7092 59.5802 38.7795 62.1336C38.8058 63.283 38.7198 64.5153 38.8819 65.6482C38.5098 65.7168 38.1721 65.7947 37.8177 65.9338C37.5384 65.4984 37.3574 64.9042 37.1525 64.423L35.7353 61.1059L31.5339 51.3003C30.7255 49.41 29.9789 47.4511 29.0421 45.6227C28.871 45.5299 28.6304 45.5344 28.4383 45.5143C28.1222 45.4136 27.8353 45.345 27.5041 45.3204C27.5573 45.4415 27.6041 45.5859 27.6772 45.695C27.4241 46.3679 27.5404 48.9815 27.4953 49.8819C27.0524 49.8813 26.5984 49.9011 26.1569 49.8735L25.6765 49.8603C25.3912 49.7054 24.0143 49.8175 23.6011 49.8238L23.4317 49.7504C23.3304 49.3992 23.4511 42.4494 23.4404 41.4469L23.2574 41.3279C23.1243 41.138 23.1474 40.8665 23.1385 40.6397C23.1215 40.3077 23.1508 39.9649 23.1616 39.6323L23.1099 39.3267L23.195 38.8869L23.259 38.8686L23.4499 39.1622L23.4548 35.0708C24.0126 35.0651 24.5709 35.0469 25.1287 35.0346C24.8826 33.8804 24.1125 30.5744 24.3632 29.571C24.6538 29.5047 25.1715 29.4505 25.4521 29.5618C27.3784 29.6259 29.3279 29.5315 31.2559 29.5052C33.5234 29.4742 35.803 29.498 38.0676 29.3939Z" fill="#002860"/>
<path d="M24.363 29.571C24.6536 29.5047 25.1713 29.4505 25.4519 29.5618L25.3461 29.6648C25.4473 30.2834 25.6119 30.8896 25.7201 31.5074C25.9069 32.5744 26.1225 34.9133 26.5323 35.796L25.8486 36.6715C25.8774 36.3155 26.0027 35.689 25.8173 35.3741C25.6642 35.114 25.4006 35.0906 25.1285 35.0346C24.8824 33.8805 24.1123 30.5744 24.363 29.571Z" fill="#86DFFC"/>
<path d="M31.6336 35.8469C32.0983 35.8817 32.3227 36.1349 32.6158 36.4731C33.624 37.6372 33.8826 39.4475 33.7702 40.9277C33.6555 42.436 33.1356 43.9898 31.9587 45.0044C31.5254 45.378 30.8003 45.7759 30.2017 45.7412C30.0498 45.7322 29.8918 45.6489 29.7578 45.5809C30.1052 45.4316 30.4555 45.2725 30.774 45.067C31.9329 44.3185 32.5594 43.1263 32.8354 41.8026C33.2953 39.5937 32.8516 37.7154 31.6336 35.8469Z" fill="#1DA1F5"/>
<path d="M26.5325 35.7959C27.3027 35.1062 28.1284 34.7559 29.1742 34.8108C30.0951 34.859 30.9467 35.2413 31.6337 35.8469C32.8517 37.7153 33.2954 39.5937 32.8355 41.8025C32.5595 43.1263 31.933 44.3185 30.7741 45.0669C30.4556 45.2725 30.1053 45.4316 29.7579 45.5808C29.523 45.6242 29.2802 45.618 29.0421 45.6228C28.871 45.5299 28.6304 45.5344 28.4383 45.5143C28.1222 45.4136 27.8353 45.345 27.5041 45.3204C27.5573 45.4415 27.6041 45.5859 27.6772 45.695C27.4241 46.3679 27.5404 48.9816 27.4953 49.8819C27.0524 49.8813 26.5984 49.9011 26.1569 49.8735L25.6765 49.8604C25.3912 49.7054 24.0143 49.8175 23.6011 49.8238L23.4317 49.7504C23.3304 49.3992 23.4511 42.4494 23.4404 41.4469L23.2574 41.3279C23.1243 41.138 23.1474 40.8665 23.1385 40.6397C23.1215 40.3077 23.1508 39.9649 23.1616 39.6323L23.1099 39.3267L23.195 38.8869L23.259 38.8686L23.4499 39.1622L23.4548 35.0708C24.0126 35.0651 24.5709 35.0469 25.1287 35.0346C25.4008 35.0906 25.6644 35.114 25.8175 35.3741C26.0029 35.689 25.8776 36.3155 25.8488 36.6714L26.5325 35.7959Z" fill="#FDFEFE"/>
<path d="M23.1099 39.3268L23.195 38.8869L23.259 38.8687L23.4499 39.1623L23.4407 40.6149L23.4404 41.4469L23.2574 41.328C23.1243 41.138 23.1474 40.8666 23.1385 40.6397C23.1215 40.3078 23.1508 39.965 23.1616 39.6324L23.1099 39.3268Z" fill="#001B47"/>
<path d="M29.2585 42.808C28.9561 42.971 28.6482 43.1418 28.2925 43.1029C27.878 43.0576 27.5067 42.7802 27.2502 42.4665C26.5371 41.5943 26.3411 40.2262 26.4457 39.1325C26.5035 38.5285 26.6993 37.9104 27.1902 37.5194C27.6233 37.1745 28.0215 37.2071 28.539 37.2623C28.5311 37.2844 28.5234 37.3066 28.5153 37.3288C28.3592 37.7504 27.9932 37.952 27.7304 38.2969C27.1331 39.0801 27.216 40.5267 27.5915 41.3902C28.0509 42.447 28.9359 42.287 29.2585 42.808Z" fill="#0C7AF0"/>
<path d="M26.1387 44.3104C26.5429 44.7515 26.9576 45.0715 27.5041 45.3205C27.5573 45.4415 27.6041 45.5859 27.6772 45.695C27.4241 46.368 27.5404 48.9816 27.4953 49.882C27.0524 49.8814 26.5984 49.9011 26.1569 49.8736C26.2388 49.2971 26.1665 48.6127 26.1615 48.0261L26.1387 44.3104Z" fill="#1DA1F5"/>
<path d="M28.5391 37.2623C29.1095 37.4406 29.4574 37.6833 29.739 38.2247C30.2414 39.1904 30.2075 40.6631 29.8754 41.6809C29.7451 42.0803 29.5372 42.4908 29.2586 42.8081C28.936 42.287 28.051 42.447 27.5916 41.3903C27.2161 40.5267 27.1331 39.0802 27.7304 38.2969C27.9933 37.9521 28.3593 37.7504 28.5154 37.3288C28.5235 37.3067 28.5311 37.2845 28.5391 37.2623Z" fill="#002860"/>
<path d="M64.6384 12.2438C64.7169 12.5435 64.7552 12.8248 64.7738 13.1339C67.9588 16.9494 70.5916 21.0012 72.177 25.7507C72.4424 26.5461 72.7666 27.3664 72.9014 28.1956C73.7353 28.1207 78.8316 27.9577 79.3443 28.0939C79.492 28.2223 79.6005 28.3474 79.6649 28.5358C79.6667 28.5409 79.6655 28.5465 79.6655 28.5518C79.7632 29.6449 79.8776 34.4659 79.6835 35.3936C80.1599 34.8477 79.6562 33.4862 79.9091 32.7877C80.1143 33.3427 80.094 43.3525 79.9127 43.7543C80.0964 44.2224 80.1032 46.7859 79.9031 47.2716C80.0424 47.633 80.0253 47.9494 79.9187 48.317C79.7737 48.5223 79.599 48.5774 79.3515 48.6188C78.3852 48.7797 73.6346 48.7383 72.6522 48.5774C72.0673 51.6 69.1573 56.5037 67.3335 59.0427C66.7322 59.8802 64.8068 61.7873 64.6177 62.6155C64.3804 62.1085 64.3795 61.6273 64.4376 61.0784C64.3474 60.7949 64.1961 60.5163 64.0343 60.2664C63.9738 60.1741 63.9089 60.085 63.8396 59.9991C63.7705 59.9132 63.6972 59.831 63.6196 59.7525C63.5423 59.6738 63.4613 59.5991 63.3767 59.5284C63.2922 59.4577 63.2043 59.3913 63.113 59.3292C63.0219 59.267 62.9279 59.2095 62.831 59.1566C62.7342 59.1036 62.635 59.0556 62.5335 59.0125C62.432 58.9693 62.3287 58.9313 62.2234 58.8983C62.1181 58.8653 62.0115 58.8376 61.9034 58.815C60.9098 58.5993 59.7841 58.8225 58.9299 59.3609C58.7262 59.5904 58.5245 59.7298 58.2585 59.8811C58.0937 59.7924 57.9546 59.6902 57.8393 59.5422C57.0662 58.5477 56.452 57.307 55.8018 56.2203C54.286 53.6854 52.8128 51.1122 51.2319 48.6179C51.5271 48.2778 51.7922 47.9482 52.0235 47.5611C52.0292 46.9831 51.8767 46.5468 51.5675 46.0644C51.4605 45.994 51.4252 45.8209 51.3832 45.7043C52.4694 45.6668 53.1597 45.2893 53.9828 44.6307C54.9704 43.6231 55.4438 42.3347 55.5549 40.9436C55.7041 39.0703 55.3347 37.3424 54.0967 35.8988C53.7347 35.6737 53.3311 35.482 53.0327 35.1734C53.6556 34.3632 54.2222 30.0198 55.0519 29.1205L55.3566 29.14C57.5446 29.14 59.7324 29.1118 61.9199 29.0554C62.0283 28.8808 62.1527 28.6865 62.2219 28.4928C62.3031 28.2643 62.3166 27.8824 62.1916 27.6671C61.8929 27.1531 60.9182 27.0905 60.3918 26.9474C60.1293 26.6637 60.0143 26.196 59.862 25.843C59.4983 24.9983 58.9233 24.0708 58.212 23.4749C57.6859 23.0339 55.4459 22.0709 55.3059 21.7675C55.4237 21.2228 56.9053 20.3427 57.3113 19.742C58.1038 18.5701 58.3612 17.1669 58.1008 15.7836C58.9527 16.4141 59.7671 16.9529 60.8916 16.7886C61.1828 16.746 61.4755 16.67 61.7539 16.5753L62.2114 16.4103C63.2152 16.0404 64.0274 15.1853 64.4652 14.2237C64.5095 13.5628 64.5919 12.905 64.6384 12.2438ZM64.6384 12.2438C64.5919 12.905 64.5095 13.5628 64.4652 14.2237C67.2475 17.2573 69.4402 20.9567 70.894 24.8025C71.2784 25.8192 71.628 26.8419 71.8875 27.8983C71.9376 28.1022 72.132 29.213 72.251 29.3109C72.2992 29.3508 72.5605 29.3687 72.6285 29.3723C74.4964 29.4703 76.4253 29.351 78.3001 29.3495C78.4823 29.6381 78.4787 29.971 78.4964 30.3021C78.5853 31.9665 78.4892 33.6633 78.5053 35.3334L78.7004 45.2986C78.7166 45.974 78.6201 46.688 78.7121 47.3549L78.6764 47.423C77.652 47.4194 72.5719 47.2375 71.9121 47.5485C71.7524 47.7199 71.7521 48.0051 71.7473 48.2286C71.7362 48.7542 71.3922 49.3531 71.2146 49.8544C69.874 53.6351 67.2703 58.2203 64.4376 61.0784C64.3795 61.6273 64.3804 62.1085 64.6177 62.6155C64.8068 61.7873 66.7322 59.8802 67.3335 59.0427C69.1573 56.5037 72.0673 51.6 72.6522 48.5774C73.6346 48.7383 78.3852 48.7797 79.3515 48.6188C79.599 48.5774 79.7737 48.5223 79.9187 48.317C80.0253 47.9494 80.0424 47.633 79.9031 47.2716C80.1032 46.7859 80.0964 44.2224 79.9127 43.7543C80.094 43.3525 80.1143 33.3427 79.9091 32.7877C79.6562 33.4862 80.1599 34.8477 79.6835 35.3936C79.8776 34.4659 79.7632 29.6449 79.6655 28.5518C79.6655 28.5465 79.6667 28.5409 79.6649 28.5358C79.6005 28.3474 79.492 28.2223 79.3443 28.0939C78.8316 27.9577 73.7353 28.1207 72.9014 28.1956C72.7666 27.3664 72.4424 26.5461 72.177 25.7507C70.5916 21.0012 67.9588 16.9494 64.7738 13.1339C64.7552 12.8248 64.7169 12.5435 64.6384 12.2438Z" fill="#002860"/>
<path d="M55.0519 29.1205L55.3566 29.14C55.5583 29.2602 55.7464 29.3471 55.8348 29.5775C55.9409 30.2988 54.4251 34.9376 54.0967 35.8988C53.7347 35.6737 53.3311 35.482 53.0327 35.1734C53.6556 34.3632 54.2222 30.0198 55.0519 29.1205Z" fill="#86DFFC"/>
<path d="M77.0263 35.0637C77.3131 35.0622 77.4482 35.0299 77.6969 35.1812C77.7123 35.2387 77.7216 35.2971 77.7248 35.3564C77.7282 35.4158 77.7253 35.4748 77.7164 35.5335C77.7076 35.5925 77.6928 35.6498 77.672 35.7055C77.6512 35.7612 77.6251 35.8143 77.5935 35.8646C77.5842 35.8799 77.574 35.8946 77.5642 35.9096C77.5363 36.2137 74.9122 39.6168 74.5532 39.9114C74.4987 39.956 74.4436 39.9926 74.3806 40.024C74.9988 40.4866 77.8206 44.5283 77.9234 45.2105C77.9357 45.2929 77.9372 45.375 77.9345 45.4583C77.7943 45.6093 77.663 45.6147 77.4578 45.6204C77.1809 45.6282 76.9005 45.6126 76.6236 45.6033L76.6254 45.5548C76.8145 45.5437 77.6079 45.5722 77.72 45.4649C77.6801 45.4239 77.6409 45.3798 77.5986 45.3415C77.1908 44.9729 76.9475 44.4564 76.6206 44.0159C75.5995 42.6388 74.5029 41.2645 73.604 39.8035C74.677 38.2233 75.9054 36.6988 77.0964 35.206L77.0263 35.0637Z" fill="#A9C1E6"/>
<path d="M63.2417 30.4158C63.6018 30.3655 64.0084 30.3655 64.3566 30.4778C64.7973 30.6196 65.1812 30.9213 65.3882 31.339C65.4124 31.3887 65.434 31.4394 65.4532 31.4912C65.4724 31.5431 65.489 31.5957 65.503 31.6491C65.5167 31.7026 65.5279 31.7567 65.5365 31.8115C65.5449 31.866 65.5506 31.9208 65.5536 31.976C65.5566 32.0313 65.5569 32.0865 65.5545 32.1417C65.5519 32.1968 65.5466 32.2517 65.5386 32.3065C65.5306 32.3612 65.5199 32.4153 65.5066 32.4689C65.4932 32.5226 65.4771 32.5754 65.4583 32.6274C65.2468 33.2281 64.797 33.5655 64.2397 33.8262C63.9245 33.9089 63.6291 33.9289 63.3112 33.8447C62.869 33.7273 62.5013 33.4594 62.2781 33.0576C62.0477 32.6435 61.9788 32.1366 62.1097 31.6796C62.2892 31.0537 62.694 30.7235 63.2417 30.4158Z" fill="#FDFEFE"/>
<path d="M52.0235 47.561L56.455 54.9753C57.0105 55.9038 58.7247 58.4416 58.9299 59.3609C58.7262 59.5904 58.5245 59.7297 58.2585 59.881C58.0937 59.7923 57.9546 59.6902 57.8393 59.5422C57.0662 58.5477 56.452 57.307 55.8018 56.2202C54.286 53.6854 52.8128 51.1122 51.2319 48.6178C51.5271 48.2777 51.7922 47.9482 52.0235 47.561Z" fill="#86DFFC"/>
<path d="M62.4019 35.0733C63.4008 35.0508 64.4031 35.0691 65.4023 35.0703L65.4185 42.2172C65.4194 43.2219 65.565 44.6316 65.3466 45.5829C64.3692 45.5272 63.3876 45.5452 62.4087 45.5473L62.4019 35.0733Z" fill="#FDFEFE"/>
<path d="M57.2491 30.4237L60.2073 30.4315C60.1207 31.7145 60.1905 33.0463 60.1899 34.3338L60.1965 42.0012C60.1977 42.8839 60.3269 44.8396 60.1267 45.5794C59.1652 45.5296 58.1992 45.5491 57.2368 45.5512L57.2455 35.932C57.2563 34.1016 57.3237 32.2526 57.2491 30.4237Z" fill="#FDFEFE"/>
<path d="M64.6384 12.2438C64.7169 12.5435 64.7553 12.8248 64.7738 13.1339C67.9588 16.9494 70.5917 21.0012 72.177 25.7507C72.4424 26.5461 72.7666 27.3664 72.9015 28.1956C73.7353 28.1207 78.8317 27.9577 79.3443 28.0939C79.492 28.2223 79.6005 28.3474 79.6649 28.5358C79.6667 28.5409 79.6655 28.5465 79.6655 28.5518C79.7632 29.6449 79.8776 34.4659 79.6835 35.3936C80.1599 34.8477 79.6562 33.4862 79.9091 32.7877C80.1143 33.3427 80.094 43.3525 79.9127 43.7543C80.0964 44.2224 80.1033 46.7859 79.9031 47.2716C80.0424 47.633 80.0254 47.9494 79.9187 48.317C79.7737 48.5223 79.599 48.5774 79.3515 48.6188C78.3852 48.7797 73.6347 48.7383 72.6522 48.5774C72.0673 51.6 69.1573 56.5037 67.3335 59.0427C66.7322 59.8802 64.8068 61.7873 64.6177 62.6155C64.3804 62.1085 64.3795 61.6273 64.4376 61.0784C67.2703 58.2203 69.8741 53.6351 71.2146 49.8544C71.3923 49.3531 71.7362 48.7542 71.7473 48.2286C71.7521 48.0051 71.7524 47.7199 71.9121 47.5485C72.5719 47.2375 77.652 47.4194 78.6765 47.423L78.7121 47.3549C78.6201 46.688 78.7166 45.974 78.7004 45.2986L78.5054 35.3334C78.4892 33.6633 78.5854 31.9665 78.4964 30.3021C78.4787 29.971 78.4823 29.6381 78.3001 29.3495C76.4254 29.351 74.4964 29.4703 72.6285 29.3723C72.5605 29.3687 72.2992 29.3508 72.251 29.3109C72.132 29.213 71.9376 28.1022 71.8875 27.8983C71.6281 26.8419 71.2784 25.8192 70.894 24.8025C69.4402 20.9567 67.2475 17.2573 64.4652 14.2237C64.5096 13.5628 64.592 12.905 64.6384 12.2438ZM79.9091 32.7877C79.6562 33.4862 80.1599 34.8477 79.6835 35.3936C79.8597 35.9383 79.8989 41.8844 79.7503 42.2277C79.9924 42.4791 79.9633 42.9948 79.9573 43.3304C79.9547 43.4751 79.9571 43.6153 79.9127 43.7543C80.094 43.3525 80.1143 33.3427 79.9091 32.7877ZM79.7503 42.2277C79.8519 42.5825 80.0032 46.8857 79.9031 47.2716C80.1033 46.7859 80.0964 44.2224 79.9127 43.7543C79.9571 43.6153 79.9547 43.4751 79.9573 43.3304C79.9633 42.9948 79.9924 42.4791 79.7503 42.2277Z" fill="#86DFFC"/>
<path d="M79.7505 42.2277C79.9926 42.479 79.9635 42.9947 79.9575 43.3303C79.9548 43.475 79.9572 43.6152 79.9129 43.7543C80.0966 44.2223 80.1035 46.7859 79.9033 47.2716C80.0034 46.8856 79.8521 42.5824 79.7505 42.2277Z" fill="#86DFFC" fill-opacity="0.231373"/>
<path d="M79.9092 32.7877C80.1145 33.3426 80.0941 43.3525 79.9128 43.7543C79.9572 43.6153 79.9548 43.4751 79.9575 43.3303C79.9634 42.9948 79.9925 42.4791 79.7504 42.2277C79.899 41.8843 79.8598 35.9383 79.6836 35.3936C80.16 34.8476 79.6563 33.4861 79.9092 32.7877Z" fill="#86DFFC" fill-opacity="0.0117647"/>
<path d="M70.6369 30.4279L71.0636 30.4561C71.348 30.7841 71.2356 36.4968 71.1754 37.3391C71.1454 37.754 70.888 38.6778 71.0312 39.0158C71.4274 38.4558 73.7806 35.4176 73.7989 35.061C74.8747 34.9975 75.9506 34.9984 77.0265 35.0637L77.0966 35.206C75.9056 36.6988 74.6771 38.2232 73.6041 39.8035C74.503 41.2644 75.5996 42.6388 76.6208 44.0159C76.9477 44.4564 77.1909 44.9729 77.5987 45.3414C77.641 45.3798 77.6802 45.4238 77.7201 45.4649C77.608 45.5722 76.8146 45.5437 76.6256 45.5548L76.6238 45.6033C75.7716 45.6947 74.8275 45.6156 73.9655 45.6177C73.9023 45.4847 73.5607 45.2674 73.4486 45.1009C72.9896 44.4177 72.5584 43.7166 72.0979 43.034C71.8654 42.7578 71.6829 42.4782 71.3099 42.4303L71.2071 42.5304L71.2248 43.2453C71.2278 44.0372 71.2431 44.8309 71.1883 45.6213C70.7622 45.6093 70.2909 45.6315 69.8732 45.5542L67.5676 45.5395C67.644 42.22 67.585 38.8905 67.5811 35.5698C67.5793 33.8583 67.5154 32.1256 67.6641 30.4201C68.655 30.4031 69.646 30.4057 70.6369 30.4279Z" fill="#FDFEFE"/>
<path d="M71.2071 42.5303C71.2035 42.521 71.1987 42.5124 71.196 42.5031C71.0987 42.1558 70.9033 41.2953 71.0945 40.9849L72.1872 42.61L72.0979 43.034C71.8654 42.7577 71.6829 42.4782 71.3099 42.4303L71.2071 42.5303Z" fill="#0E4F9A"/>
<path d="M72.1869 42.61C72.699 43.2155 73.8732 45.2356 74.1297 45.4756C74.1732 45.5164 74.5078 45.543 74.5795 45.549C75.2491 45.6029 75.9517 45.5502 76.6253 45.5547L76.6235 45.6032C75.7714 45.6946 74.8272 45.6155 73.9652 45.6176C73.902 45.4846 73.5604 45.2674 73.4484 45.1008C72.9893 44.4176 72.5582 43.7165 72.0977 43.034L72.1869 42.61Z" fill="#0C7AF0"/>
<path d="M70.6074 40.3782C70.783 40.5735 70.9418 40.771 71.0943 40.9849C70.9032 41.2953 71.0985 42.1559 71.1959 42.5031C71.1986 42.5124 71.2034 42.5211 71.207 42.5304L71.2247 43.2453C71.2277 44.0372 71.2429 44.8309 71.1881 45.6213C70.762 45.6093 70.2907 45.6315 69.873 45.5542C70.0966 45.544 70.3177 45.5284 70.5403 45.5054C70.505 45.2866 70.5676 44.9702 70.5691 44.72L70.5853 41.8281C70.5493 41.3621 70.6173 40.8534 70.6074 40.3782Z" fill="#A9C1E6"/>
<path d="M70.6075 40.3782C70.783 40.5735 70.9418 40.771 71.0943 40.9849C70.9032 41.2953 71.0985 42.1559 71.1959 42.5031C71.1986 42.5124 71.2034 42.5211 71.207 42.5304L71.2247 43.2453C71.0794 42.9897 71.1057 42.6098 70.9158 42.4171C70.7648 42.4783 70.7462 42.5978 70.6797 42.7395C70.6743 42.4504 70.665 42.1762 70.6006 41.8934L70.5853 41.8281C70.5493 41.3621 70.6173 40.8534 70.6075 40.3782Z" fill="#2BBBFB"/>
<path d="M70.6368 30.4279L71.0635 30.456C71.3478 30.7841 71.2355 36.4968 71.1753 37.339C71.1453 37.754 70.8879 38.6777 71.0311 39.0157C70.9487 39.1658 70.8939 39.3082 70.73 39.3813L70.6521 39.2872C70.4346 38.1043 70.5673 35.6482 70.5742 34.35C70.5808 33.067 70.4972 31.6974 70.6368 30.4279Z" fill="#A9C1E6"/>
<path d="M37.3769 1.76267C37.7008 1.17202 38.1116 0.708043 38.7795 0.507947C38.8526 0.486572 38.9265 0.468871 39.0012 0.454844C39.0759 0.44082 39.1512 0.430541 39.2271 0.424007C39.3028 0.417471 39.3787 0.414713 39.4548 0.415734C39.531 0.416753 39.6068 0.421544 39.6823 0.430107C39.758 0.438673 39.833 0.450967 39.9073 0.466991C39.9816 0.483015 40.055 0.502689 40.1275 0.526014C40.1998 0.549339 40.2709 0.5762 40.3408 0.606596C40.4106 0.636994 40.4786 0.670776 40.5449 0.707944C41.0012 0.965966 41.2544 1.31036 41.4908 1.76799C41.5037 2.07072 41.4854 2.41679 41.563 2.70915C44.4382 2.58365 49.9879 4.00337 52.6465 5.10156C54.1374 5.7175 57.8303 7.83148 59.0465 8.88293C59.0719 8.9051 59.0956 8.92946 59.1199 8.95322C59.5136 8.79076 59.7979 8.84376 60.1503 8.57632C61.7347 8.92307 63.1079 9.32796 64.0301 10.777C64.3091 11.2152 64.5305 11.7353 64.6384 12.2438C64.5919 12.905 64.5095 13.5627 64.4652 14.2237C64.0274 15.1853 63.2151 16.0404 62.2114 16.4103L61.7539 16.5753C61.4755 16.67 61.1828 16.746 60.8916 16.7885C59.7671 16.9529 58.9527 16.4141 58.1008 15.7836C58.3612 17.1669 58.1038 18.5701 57.3113 19.742C56.9053 20.3426 55.4237 21.2228 55.3059 21.7675C55.4459 22.0709 57.6859 23.0339 58.212 23.4749C58.9233 24.0708 59.4983 24.9983 59.862 25.843C60.0142 26.196 60.1293 26.6637 60.3918 26.9474C60.9182 27.0905 61.8929 27.1531 62.1916 27.6671C62.3166 27.8824 62.3031 28.2643 62.2219 28.4928C62.1527 28.6865 62.0283 28.8808 61.9199 29.0554C59.7324 29.1118 57.5446 29.1399 55.3566 29.1399L55.0518 29.1205C53.0794 29.3247 51.0111 29.2098 49.0249 29.2417C45.5609 29.2974 42.0799 29.421 38.6165 29.379C38.4262 29.3588 38.251 29.3254 38.0673 29.394C35.8027 29.4981 33.5232 29.4742 31.2556 29.5052C29.3276 29.5316 27.3781 29.6259 25.4518 29.5618C25.1712 29.4506 24.6536 29.5047 24.363 29.571C21.9076 29.6785 19.3391 29.8038 16.887 29.6853C16.6154 29.3422 16.4327 29.0248 16.372 28.5885C16.3276 28.2697 16.3854 28.0126 16.5891 27.7585C17.0264 27.2127 17.7362 27.0601 18.3931 26.9817C18.4696 26.9157 19.0254 25.3351 19.2576 24.9788C19.9625 23.8971 21.123 22.7016 22.4377 22.4247C22.7418 22.2927 23.1724 22.1637 23.3453 21.8626C23.2835 21.4069 21.7809 20.3749 21.3644 19.7752C20.4377 18.4412 20.4387 16.99 20.7129 15.4522C20.5798 15.6061 20.438 15.7772 20.2766 15.9024C19.579 16.4431 18.3169 16.7342 17.465 16.608C16.6484 16.487 15.758 16.0417 15.258 15.3622C14.9133 15.0651 14.7274 14.7141 14.5631 14.2951C14.5775 13.9775 14.5105 13.6665 14.3848 13.3775C14.4587 12.9465 14.4951 12.4971 14.604 12.0742C15.0021 10.528 16.1299 9.38198 17.6853 8.99609C18.1394 8.88343 18.6631 8.89314 19.0669 8.64002C19.0857 8.62827 19.104 8.61584 19.1225 8.60373C19.3858 8.83477 19.581 9.05614 19.9578 9.04334C19.965 9.02776 19.9716 9.01188 19.9794 8.99657C20.118 8.72487 20.9088 8.33566 21.1787 8.16508C24.047 6.35184 26.8971 4.90896 30.1674 3.94258C31.1891 3.64068 36.5374 2.37126 37.2748 2.77152L37.3701 3.23717C37.3823 2.75606 37.4575 2.23756 37.3769 1.76267Z" fill="url(#paint1_linear_188_42)"/>
<path d="M48.6647 19.355C48.6024 19.2256 48.5457 19.0938 48.4948 18.9596C48.4437 18.8254 48.3984 18.6892 48.3591 18.5511C48.3197 18.413 48.2864 18.2735 48.259 18.1325C48.2316 17.9916 48.2103 17.8497 48.1949 17.7069C48.1797 17.5641 48.1706 17.4209 48.1676 17.2774C48.1646 17.1338 48.1677 16.9903 48.1769 16.847C48.1863 16.7037 48.2017 16.5611 48.223 16.4191C48.2446 16.2771 48.2722 16.1363 48.3057 15.9967C48.3171 16.295 48.345 16.5916 48.3893 16.8867C48.4339 17.1819 48.4947 17.4736 48.5718 17.7619C48.6489 18.0502 48.7419 18.3333 48.8508 18.6112C48.9596 18.8891 49.0836 19.1601 49.2226 19.4242C49.0066 19.4515 48.8684 19.4191 48.6647 19.355Z" fill="#2BBBFB"/>
<path d="M58.1012 15.7835C58.0449 15.6008 57.9631 15.4085 57.981 15.2156C58.2267 15.3131 58.467 15.5658 58.7046 15.7082C59.6359 16.2665 60.6609 16.5961 61.7542 16.5752C61.4759 16.6699 61.1831 16.7459 60.8919 16.7885C59.7674 16.9528 58.953 16.4141 58.1012 15.7835Z" fill="#1DA1F5"/>
<path d="M48.665 19.355C48.8688 19.4191 49.0069 19.4515 49.2229 19.4242C49.6969 20.1607 50.9317 20.86 51.1675 21.3173C51.2011 21.3826 51.172 21.5648 51.1681 21.6444L51.1067 21.6687C51.0216 21.6462 50.9383 21.6212 50.8562 21.5891C49.845 21.1932 49.1001 20.3178 48.665 19.355Z" fill="#1DA1F5"/>
<path d="M45.5801 14.0127C45.4407 14.8241 44.4729 15.9523 43.8183 16.4383C43.438 16.7776 42.1925 17.2498 42.0181 17.5407C42.004 17.3493 41.9953 17.1964 42.0547 17.0094C42.2228 16.7626 42.5793 16.6516 42.8442 16.5318C43.116 16.3768 43.3782 16.207 43.6307 16.0223C43.8834 15.8377 44.1248 15.6394 44.3549 15.4274C44.5852 15.2155 44.8027 14.9912 45.0075 14.7547C45.2124 14.5181 45.4033 14.2708 45.5801 14.0127Z" fill="#0C7AF0"/>
<path d="M39.1898 0.915039C39.4907 0.94727 39.8199 1.00079 40.0725 1.17579C40.4129 1.41149 40.6646 1.8324 40.7257 2.24C40.7659 2.50683 40.7224 2.78318 40.5564 3.0019C40.3572 3.26461 40.0354 3.39372 39.7187 3.43635C39.4271 3.47513 39.0502 3.54068 38.7662 3.44639C38.5205 3.36468 38.2742 3.15255 38.1591 2.91979C38.0159 2.62941 38.0192 2.29257 38.122 1.99036C38.3092 1.43821 38.6829 1.15666 39.1898 0.915039Z" fill="#1DA1F5"/>
<path d="M60.2562 9.39256C60.9627 9.34714 61.6327 9.46567 62.2532 9.81782C63.0469 10.2683 63.615 11.0426 63.8526 11.9198C63.879 12.0151 63.9005 12.1115 63.917 12.209C63.9336 12.3066 63.9452 12.4047 63.9518 12.5034C63.9584 12.6021 63.96 12.7008 63.9566 12.7997C63.953 12.8985 63.9445 12.997 63.9311 13.095C63.9177 13.193 63.8994 13.2901 63.876 13.3862C63.8528 13.4823 63.8248 13.577 63.7918 13.6703C63.7588 13.7636 63.7213 13.855 63.6791 13.9444C63.637 14.0339 63.5903 14.121 63.5392 14.2057C63.0667 15.0016 62.3695 15.3847 61.5015 15.6085C60.6961 15.7244 59.917 15.5023 59.2528 15.0396C59.1581 14.9745 59.0668 14.9048 58.9789 14.8305C58.891 14.7562 58.8071 14.6777 58.7272 14.5951C58.6473 14.5125 58.5716 14.426 58.5001 14.3358C58.4288 14.2456 58.3622 14.152 58.3003 14.0552C58.2383 13.9583 58.1813 13.8586 58.1292 13.756C58.0772 13.6535 58.0305 13.5486 57.9889 13.4413C57.9472 13.3341 57.911 13.225 57.8805 13.1142C57.8497 13.0033 57.8247 12.8912 57.8053 12.7779C57.7889 12.6788 57.7774 12.5791 57.7708 12.4789C57.7642 12.3787 57.7625 12.2784 57.7657 12.178C57.7691 12.0776 57.7773 11.9776 57.7903 11.878C57.8035 11.7784 57.8214 11.6797 57.8439 11.5819C57.8667 11.4841 57.8942 11.3876 57.9263 11.2925C57.9587 11.1973 57.9955 11.104 58.0369 11.0125C58.0782 10.9209 58.124 10.8316 58.1741 10.7446C58.2243 10.6576 58.2785 10.5732 58.3368 10.4915C58.8219 9.82279 59.4631 9.52191 60.2562 9.39256Z" fill="#1DA1F5"/>
<path d="M52.6998 12.5312C53.5055 12.4103 54.4031 12.585 55.1261 12.9509C55.2538 13.0166 55.3779 13.0883 55.4986 13.1661C55.6194 13.2439 55.7361 13.3274 55.8485 13.4167C55.961 13.5059 56.0687 13.6005 56.1718 13.7003C56.2751 13.8002 56.3732 13.9048 56.4661 14.0143C56.5589 14.1238 56.6462 14.2375 56.7279 14.3556C56.8096 14.4736 56.8853 14.5954 56.955 14.7209C57.025 14.8463 57.0885 14.9749 57.1456 15.1066C57.2027 15.2384 57.2533 15.3726 57.2972 15.5093C57.3406 15.6413 57.3771 15.7752 57.4069 15.911C57.4368 16.0467 57.4599 16.1836 57.4761 16.3216C57.4923 16.4597 57.5015 16.5982 57.5037 16.7371C57.5061 16.8761 57.5014 17.0148 57.4896 17.1533C57.478 17.2918 57.4596 17.4294 57.4344 17.566C57.4091 17.7027 57.3769 17.8377 57.338 17.9712C57.299 18.1046 57.2536 18.2357 57.2016 18.3646C57.1497 18.4935 57.0914 18.6195 57.0267 18.7425C56.3537 20.0416 55.3188 20.6044 53.9651 21.0298C52.884 21.1128 51.8249 20.8381 50.9383 20.2068C50.0205 19.5533 49.3407 18.4934 49.1636 17.377C48.9817 16.2299 49.3236 14.9851 50.0106 14.0558C50.7058 13.1156 51.566 12.6978 52.6998 12.5312Z" fill="url(#paint2_linear_188_42)"/>
<path d="M51.9133 21.462C52.8221 21.5451 53.6862 21.6025 54.598 21.5032C54.604 21.7766 54.577 22.095 54.7247 22.3341C55.187 22.6592 55.8705 22.7735 56.3954 23.0113C58.5159 23.9717 59.4121 25.6573 59.8942 27.8584C56.1231 28.0262 52.3133 28.0261 48.5387 28.0257C48.5467 27.2145 48.5701 26.3942 48.4985 25.5855C48.4572 25.1184 48.2094 24.1564 48.3508 23.7405L48.6867 23.4747C48.9584 23.3896 49.2386 23.19 49.5085 23.0777C50.1303 22.8191 50.7379 22.6488 51.3875 22.4809C51.5673 22.419 51.626 22.4194 51.7138 22.2423C51.8249 22.0177 51.8612 21.7082 51.9133 21.462Z" fill="#0C7AF0"/>
<path d="M23.0431 22.6524C23.258 22.6266 23.632 22.6235 23.7717 22.4285C24.0104 22.0953 23.728 21.6956 24.2503 21.5829C25.025 21.4159 25.9189 21.609 26.728 21.4912L26.817 22.4851C27.8075 22.72 28.7616 22.9153 29.6153 23.5046C29.71 23.5637 29.8351 23.6284 29.9142 23.7069C29.9414 23.7338 30.0205 23.8301 30.0232 23.8722C30.054 24.377 29.8767 25.0131 29.8392 25.5366C29.7733 26.4562 29.8012 27.3916 29.8066 28.3133L18.8281 28.4583C18.8799 27.576 18.9889 26.7696 19.34 25.95C20.0607 24.2674 21.3786 23.3164 23.0431 22.6524Z" fill="#1DA1F5"/>
<path d="M38.4825 4.06863C39.8536 3.83726 41.4014 4.22518 42.5783 4.93413C44.0279 5.80726 45.0727 7.2938 45.4781 8.93086C45.8673 10.5032 45.521 12.1914 44.6898 13.5671C43.6459 15.2947 41.9992 16.1467 40.093 16.6166C39.889 16.6418 39.6843 16.6571 39.4787 16.6627C39.2732 16.6683 39.0679 16.664 38.863 16.6498C38.6578 16.6357 38.4539 16.6117 38.2512 16.578C38.0484 16.5442 37.8478 16.5009 37.6492 16.4479C37.4507 16.3948 37.255 16.3325 37.0622 16.2607C36.8697 16.1889 36.681 16.108 36.4962 16.0181C36.3113 15.9282 36.1312 15.8296 35.956 15.7224C35.7806 15.6152 35.6108 15.4999 35.4464 15.3764C35.3661 15.3165 35.2872 15.2548 35.2097 15.1911C35.1324 15.1275 35.0566 15.062 34.9825 14.9946C34.9084 14.9273 34.836 14.8581 34.7653 14.7873C34.6944 14.7164 34.6254 14.6438 34.5583 14.5695C34.491 14.4952 34.4255 14.4194 34.362 14.3419C34.2985 14.2645 34.2369 14.1855 34.1771 14.1051C34.1174 14.0246 34.0598 13.9427 34.0043 13.8595C33.9485 13.7762 33.8949 13.6916 33.8434 13.6057C33.7918 13.5198 33.7424 13.4327 33.695 13.3444C33.6477 13.2561 33.6026 13.1667 33.5596 13.0762C33.5167 12.9857 33.4759 12.8942 33.4374 12.8018C33.399 12.7092 33.3629 12.6159 33.3289 12.5216C33.2949 12.4274 33.2633 12.3323 33.2339 12.2365C33.2048 12.1407 33.1779 12.0443 33.1533 11.9472C33.1288 11.8501 33.1065 11.7524 33.0865 11.6542C33.0667 11.556 33.0494 11.4574 33.0344 11.3583C32.7806 9.58243 33.272 7.86743 34.3509 6.44697C34.4131 6.36613 34.4771 6.28686 34.543 6.20915C34.6091 6.13145 34.677 6.05543 34.7467 5.98108C34.8164 5.90671 34.888 5.83411 34.9613 5.76328C35.0346 5.69245 35.1096 5.62346 35.1863 5.5563C35.263 5.48916 35.3413 5.42394 35.4212 5.36064C35.5011 5.29734 35.5826 5.23605 35.6657 5.17676C35.7486 5.11746 35.8329 5.06024 35.9186 5.00511C36.0043 4.94996 36.0914 4.89695 36.1798 4.8461C36.2681 4.79524 36.3576 4.74658 36.4483 4.70012C36.539 4.65368 36.6309 4.60948 36.724 4.56753C36.8168 4.52559 36.9107 4.48596 37.0056 4.44864C37.1005 4.41133 37.1962 4.37636 37.2926 4.34374C37.3893 4.31115 37.4867 4.28093 37.5848 4.25311C37.6829 4.22528 37.7815 4.19988 37.8808 4.17691C37.9801 4.15394 38.08 4.13343 38.1804 4.11537C38.2807 4.09731 38.3814 4.08173 38.4825 4.06863Z" fill="url(#paint3_linear_188_42)"/>
<path d="M41.5629 2.70919C44.4381 2.58368 49.9878 4.00341 52.6464 5.1016C54.1373 5.71754 57.8302 7.83152 59.0464 8.88296C59.0718 8.90513 59.0955 8.92949 59.1198 8.95325C58.176 9.3878 57.4254 10.0946 57.0658 11.0902C56.7686 11.9136 56.836 12.7468 56.8915 13.6032C55.876 12.5929 54.6437 11.8854 53.1737 11.8882C51.9285 11.8906 50.6584 12.3927 49.7775 13.2778C49.0272 14.0315 48.5673 14.9748 48.3057 15.9967C48.2721 16.1364 48.2446 16.2772 48.223 16.4191C48.2016 16.5611 48.1862 16.7038 48.1769 16.8471C48.1677 16.9904 48.1646 17.1338 48.1676 17.2774C48.1706 17.4209 48.1797 17.5641 48.1948 17.7069C48.2102 17.8497 48.2316 17.9916 48.259 18.1326C48.2863 18.2735 48.3197 18.413 48.359 18.5511C48.3984 18.6892 48.4436 18.8254 48.4948 18.9596C48.5457 19.0939 48.6023 19.2257 48.6646 19.3551C49.0997 20.3179 49.8446 21.1933 50.8558 21.5892C50.9379 21.6213 51.0212 21.6463 51.1063 21.6687L51.1677 21.6445C51.195 21.9559 51.1458 22.2717 51.387 22.481C50.7375 22.6489 50.1298 22.8192 49.5081 23.0778C49.2381 23.1901 48.958 23.3897 48.6862 23.4748L48.5355 23.3079L48.2404 23.294C48.2038 23.2687 48.1244 23.2285 48.099 23.1961C47.9509 23.0063 47.8341 22.5793 47.7178 22.3471C47.2495 21.4132 46.6161 20.405 45.8407 19.6957C45.1545 19.0679 44.3048 18.5429 43.4497 18.1807C42.9918 17.9867 42.5088 17.8263 42.0783 17.5763L42.0181 17.5407C42.1924 17.2498 43.438 16.7776 43.8182 16.4383C44.4729 15.9523 45.4407 14.8241 45.58 14.0127C45.7397 13.804 45.8497 13.5204 45.9554 13.2798C46.7147 11.5556 46.65 9.49249 45.9713 7.75865C45.0844 5.49273 43.5093 4.47469 41.3813 3.54388C41.4578 3.27029 41.5069 2.9876 41.5629 2.70919Z" fill="#002860"/>
<path d="M51.1681 21.6444C51.1953 21.9559 51.1462 22.2716 51.3874 22.4809C50.7378 22.6488 50.1302 22.8192 49.5084 23.0778C49.2385 23.19 48.9583 23.3896 48.6866 23.4747L48.5359 23.3078L48.2407 23.294C49.2169 22.4112 50.4022 22.4027 51.0401 21.9245C51.0967 21.8822 51.0956 21.74 51.1066 21.6686L51.1681 21.6444Z" fill="#FDFEFE"/>
<path d="M37.1441 17.0515C38.4013 17.3998 40.0055 17.2443 41.2852 17.0673L41.2831 18.0777C42.9041 18.5401 44.38 19.1405 45.5824 20.3622C47.7125 22.5264 47.8287 25.1685 47.8149 28.029C45.6295 28.1625 43.4071 28.1101 41.2163 28.1509C37.6474 28.1906 34.0789 28.2934 30.5098 28.3036C30.4982 27.6029 30.5025 26.9023 30.5226 26.2017C30.6428 23.0288 31.9156 20.1079 34.9931 18.7709C35.5803 18.5156 36.5754 18.4042 37.0407 17.9732C37.1776 17.6996 37.1426 17.3515 37.1441 17.0515Z" fill="#0C7AF0"/>
<path d="M19.9578 9.04335C19.965 9.02776 19.9716 9.01188 19.9794 8.99657C20.118 8.72487 20.9088 8.33566 21.1787 8.16508C24.047 6.35184 26.8971 4.90896 30.1674 3.94258C31.1891 3.64068 36.5374 2.37126 37.2748 2.77152L37.3701 3.23717L37.4408 3.41039C37.2068 3.81153 35.753 4.28808 35.2493 4.61248C32.7933 6.19466 31.6011 9.37695 32.3501 12.1902C32.7957 13.8626 33.9504 15.5619 35.4632 16.4467C35.7934 16.6398 36.1868 16.7825 36.4514 17.0645C36.4703 17.2828 36.4745 17.3043 36.3621 17.4904C35.7212 17.8372 35.0593 18.0338 34.4044 18.335C33.1058 18.9325 31.9531 20.1084 31.1873 21.2963C30.8002 21.8967 30.6 22.7026 30.1739 23.2456L30.0999 23.2094C29.9475 23.3073 29.7801 23.4331 29.6154 23.5046C28.7617 22.9153 27.8076 22.72 26.8171 22.4851L26.7281 21.4912C25.919 21.609 25.0251 21.4159 24.2504 21.5829C23.7281 21.6956 24.0105 22.0953 23.7718 22.4285C23.6321 22.6235 23.2581 22.6266 23.0432 22.6524C23.1474 22.5285 23.2147 22.5251 23.3465 22.4525C23.4979 22.3692 23.5674 22.2774 23.6219 22.1195L23.5561 22.0302C23.5456 22.0384 23.5353 22.0467 23.5247 22.0546C23.264 22.2483 22.823 22.4906 22.493 22.4353C22.4745 22.4322 22.4562 22.4283 22.4377 22.4247C22.7418 22.2927 23.1724 22.1637 23.3453 21.8626C23.2835 21.4069 21.7809 20.3749 21.3644 19.7752C20.4377 18.4412 20.4387 16.99 20.7129 15.4522C20.5798 15.6061 20.438 15.7772 20.2766 15.9024C19.579 16.4431 18.3169 16.7342 17.465 16.608C16.6484 16.487 15.758 16.0417 15.258 15.3622C14.9133 15.0651 14.7274 14.7141 14.5631 14.2951C14.5775 13.9775 14.5105 13.6665 14.3848 13.3775C14.4587 12.9465 14.4951 12.4971 14.604 12.0742C15.0021 10.528 16.1299 9.38198 17.6853 8.99609C18.1394 8.88344 18.6631 8.89314 19.0669 8.64002C19.0857 8.62827 19.104 8.61584 19.1225 8.60373C19.3858 8.83478 19.581 9.05614 19.9578 9.04335Z" fill="#002860"/>
<path d="M30.1947 15.3623C30.6114 15.7646 30.7487 16.3251 30.7636 16.8936C30.7676 17.0729 30.7627 17.2519 30.749 17.4306C30.7352 17.6094 30.7125 17.787 30.681 17.9635C30.6496 18.14 30.6094 18.3145 30.5605 18.487C30.5118 18.6595 30.4545 18.8292 30.3888 18.996C30.3233 19.1629 30.2496 19.326 30.1677 19.4856C30.0858 19.6451 29.9962 19.8001 29.899 19.9507C29.8017 20.1014 29.6973 20.2468 29.5856 20.387C29.4738 20.5272 29.3554 20.6616 29.2304 20.79C28.8273 21.2063 28.2223 21.6266 27.6772 21.8232C27.6437 21.8354 27.611 21.8496 27.5777 21.8625L27.5175 21.8853L27.4729 22.025C27.4262 21.8842 27.391 21.7621 27.3826 21.6134C27.3767 21.5071 27.3822 21.4364 27.4543 21.35C27.7441 21.003 28.6359 20.4954 29.1124 19.9532C30.3358 18.5611 30.3025 17.1114 30.1947 15.3623Z" fill="#1DA1F5"/>
<path d="M19.1225 8.60376C19.3858 8.8348 19.581 9.05616 19.9578 9.04337L20.0338 9.13221C20.6901 9.31792 21.3111 9.96346 21.634 10.5357C21.6967 10.6484 21.7539 10.7638 21.8054 10.882C21.857 11.0002 21.9028 11.1206 21.9428 11.2432C21.9828 11.3657 22.0168 11.49 22.0448 11.6158C22.0728 11.7417 22.0947 11.8686 22.1105 11.9966C22.1263 12.1246 22.1359 12.253 22.1393 12.3819C22.1427 12.5108 22.1399 12.6396 22.131 12.7682C22.122 12.8968 22.1068 13.0247 22.0855 13.1519C22.0642 13.2791 22.0368 13.4049 22.0034 13.5295C22.9183 12.5886 24.1746 11.9468 25.5065 11.9321C25.6674 11.931 25.8279 11.9379 25.9881 11.9526C26.1483 11.9674 26.3074 11.99 26.4654 12.0204C26.6233 12.0509 26.7794 12.089 26.9336 12.1348C27.0879 12.1806 27.2394 12.2339 27.3884 12.2947C27.5374 12.3554 27.683 12.4234 27.8253 12.4984C27.9676 12.5735 28.1058 12.6555 28.24 12.7442C28.3742 12.8329 28.5037 12.928 28.6286 13.0295C28.7534 13.131 28.873 13.2383 28.9872 13.3516C29.1288 13.4898 29.261 13.6365 29.3838 13.7917C29.5066 13.9469 29.6189 14.1093 29.7207 14.279C29.8226 14.4486 29.9132 14.6241 29.9924 14.8054C30.0717 14.9867 30.1391 15.1723 30.1946 15.3623C30.3025 17.1114 30.3357 18.5611 29.1124 19.9532C28.6359 20.4954 27.7441 21.003 27.4543 21.35C27.3821 21.4364 27.3766 21.5071 27.3826 21.6134C27.3909 21.7621 27.4261 21.8842 27.4728 22.0249C28.2732 22.559 29.3243 22.5074 30.0999 23.2095C29.9475 23.3074 29.7801 23.4331 29.6154 23.5046C28.7617 22.9153 27.8076 22.7201 26.8171 22.4851L26.7281 21.4913C25.919 21.609 25.0251 21.4159 24.2504 21.583C23.7281 21.6956 24.0105 22.0953 23.7718 22.4286C23.6321 22.6235 23.2581 22.6266 23.0432 22.6524C23.1474 22.5285 23.2147 22.5252 23.3465 22.4526C23.4979 22.3692 23.5674 22.2775 23.6219 22.1196L23.5561 22.0302C23.5456 22.0384 23.5353 22.0468 23.5247 22.0547C23.264 22.2483 22.823 22.4906 22.493 22.4354C22.4745 22.4323 22.4562 22.4283 22.4377 22.4248C22.7418 22.2927 23.1724 22.1638 23.3453 21.8627C23.2835 21.4069 21.7809 20.3749 21.3644 19.7752C20.4377 18.4412 20.4387 16.99 20.7129 15.4523C20.5798 15.6062 20.438 15.7772 20.2766 15.9024C19.579 16.4432 18.3169 16.7342 17.465 16.608C16.6484 16.487 15.758 16.0417 15.258 15.3623C14.9133 15.0651 14.7274 14.7141 14.5631 14.2951C14.5775 13.9775 14.5105 13.6665 14.3848 13.3775C14.4587 12.9465 14.4951 12.4972 14.604 12.0742C15.0021 10.528 16.1299 9.38201 17.6853 8.99612C18.1394 8.88346 18.6631 8.89317 19.0669 8.64004C19.0857 8.6283 19.104 8.61586 19.1225 8.60376Z" fill="#FDFEFE"/>
<path d="M19.1225 8.60376C19.3858 8.8348 19.581 9.05616 19.9578 9.04337L20.0338 9.13221C20.0164 9.13859 19.9992 9.14515 19.9818 9.15136C19.4048 9.35657 18.4133 8.74024 18.0089 9.2772C18.9658 9.53368 19.5877 9.18599 20.4633 10.0964L20.4759 10.2601C19.604 9.66327 18.9525 9.32055 17.8599 9.51717C16.942 9.68232 16.0927 10.2761 15.5683 11.0419C15.51 11.1271 15.4562 11.2149 15.4068 11.3054C15.3574 11.396 15.3127 11.4887 15.2726 11.5837C15.2324 11.6787 15.1971 11.7755 15.1667 11.8741C15.1363 11.9726 15.1108 12.0724 15.0904 12.1735C15.0699 12.2746 15.0546 12.3765 15.0443 12.4791C15.0341 12.5817 15.0289 12.6846 15.029 12.7877C15.029 12.8909 15.0342 12.9937 15.0445 13.0964C15.0549 13.199 15.0703 13.3008 15.0908 13.4019C15.2036 13.9533 15.5452 14.4868 15.8813 14.9314C15.7139 14.9227 15.6461 14.9094 15.53 14.772C14.969 14.1077 14.818 12.8652 14.9139 12.0181C14.9679 11.5416 15.5982 11.0487 15.5269 10.6064C14.8218 11.2389 14.6942 12.4521 14.6537 13.3428C14.6029 14.4582 15.1072 14.6755 15.258 15.3623C14.9133 15.0651 14.7274 14.7141 14.5631 14.2951C14.5775 13.9775 14.5105 13.6665 14.3848 13.3775C14.4587 12.9465 14.4951 12.4972 14.604 12.0742C15.0021 10.528 16.1299 9.38201 17.6853 8.99612C18.1394 8.88346 18.6631 8.89317 19.0669 8.64004C19.0857 8.6283 19.104 8.61586 19.1225 8.60376Z" fill="#D5F9FC"/>
<path d="M15.8816 14.9314C15.5455 14.4868 15.2039 13.9533 15.0911 13.4019C15.0706 13.3008 15.0552 13.199 15.0448 13.0964C15.0345 12.9937 15.0293 12.8909 15.0293 12.7877C15.0293 12.6846 15.0344 12.5817 15.0446 12.4791C15.0549 12.3765 15.0702 12.2746 15.0907 12.1735C15.1111 12.0724 15.1366 11.9726 15.167 11.8741C15.1974 11.7755 15.2327 11.6787 15.2729 11.5837C15.313 11.4887 15.3578 11.396 15.4072 11.3054C15.4566 11.2149 15.5104 11.1271 15.5686 11.0419C16.093 10.2761 16.9423 9.68232 17.8602 9.51717C18.9528 9.32056 19.6043 9.66327 20.4762 10.2601C21.049 11.1285 21.3616 11.9373 21.151 13.0005C20.9724 13.9026 20.4231 14.6723 19.6563 15.1722C18.9525 15.6311 18.0911 15.8322 17.2648 15.6425C16.7405 15.5222 16.3036 15.2551 15.8816 14.9314Z" fill="#2BBBFB"/>
<path d="M24.8044 12.5928C25.7437 12.4893 26.6845 12.5894 27.5177 13.0656C28.4853 13.6186 29.1266 14.5691 29.4076 15.6341C29.707 16.7692 29.5434 17.8872 28.9496 18.8996C28.2745 20.0508 27.2718 20.7104 25.9978 21.0386C25.0483 21.1911 24.0688 21.0511 23.2307 20.5671C22.281 20.0188 21.5861 19.0462 21.314 17.9895C21.0229 16.8598 21.268 15.6847 21.861 14.6959C22.5584 13.5333 23.5083 12.9197 24.8044 12.5928Z" fill="url(#paint4_linear_188_42)"/>
</g>
<defs>
<linearGradient id="paint0_linear_188_42" x1="1.14147" y1="38.47" x2="2.29838" y2="38.3845" gradientUnits="userSpaceOnUse">
<stop stop-color="#001852"/>
<stop offset="1" stop-color="#002F58"/>
</linearGradient>
<linearGradient id="paint1_linear_188_42" x1="45.5775" y1="2.02798" x2="37.8225" y2="34.4871" gradientUnits="userSpaceOnUse">
<stop stop-color="#E5F8F7"/>
<stop offset="1" stop-color="white"/>
</linearGradient>
<linearGradient id="paint2_linear_188_42" x1="56.587" y1="18.9706" x2="49.8985" y2="14.4407" gradientUnits="userSpaceOnUse">
<stop stop-color="#006DED"/>
<stop offset="1" stop-color="#0D8AF5"/>
</linearGradient>
<linearGradient id="paint3_linear_188_42" x1="44.4247" y1="13.6039" x2="34.078" y2="7.03651" gradientUnits="userSpaceOnUse">
<stop stop-color="#026CEC"/>
<stop offset="1" stop-color="#1194F6"/>
</linearGradient>
<linearGradient id="paint4_linear_188_42" x1="28.783" y1="18.6924" x2="21.8889" y2="14.8771" gradientUnits="userSpaceOnUse">
<stop stop-color="#149FFC"/>
<stop offset="1" stop-color="#25B7FD"/>
</linearGradient>
<clipPath id="clip0_188_42">
<rect width="80" height="73.7079" fill="white"/>
</clipPath>
</defs>
</svg>
