<svg width="14" height="14" viewBox="0 0 14 14" fill="none" xmlns="http://www.w3.org/2000/svg">
<g clip-path="url(#clip0_228_37)">
<path fill-rule="evenodd" clip-rule="evenodd" d="M5.25 10.9375C5.25 11.0535 5.29609 11.1648 5.37814 11.2469C5.46019 11.3289 5.57147 11.375 5.6875 11.375H12.6875C12.8035 11.375 12.9148 11.3289 12.9969 11.2469C13.0789 11.1648 13.125 11.0535 13.125 10.9375V3.0625C13.125 2.94647 13.0789 2.83519 12.9969 2.75314C12.9148 2.67109 12.8035 2.625 12.6875 2.625H5.6875C5.57147 2.625 5.46019 2.67109 5.37814 2.75314C5.29609 2.83519 5.25 2.94647 5.25 3.0625V4.8125C5.25 4.92853 5.20391 5.03981 5.12186 5.12186C5.03981 5.20391 4.92853 5.25 4.8125 5.25C4.69647 5.25 4.58519 5.20391 4.50314 5.12186C4.42109 5.03981 4.375 4.92853 4.375 4.8125V3.0625C4.375 2.7144 4.51328 2.38056 4.75942 2.13442C5.00556 1.88828 5.3394 1.75 5.6875 1.75H12.6875C13.0356 1.75 13.3694 1.88828 13.6156 2.13442C13.8617 2.38056 14 2.7144 14 3.0625V10.9375C14 11.2856 13.8617 11.6194 13.6156 11.8656C13.3694 12.1117 13.0356 12.25 12.6875 12.25H5.6875C5.3394 12.25 5.00556 12.1117 4.75942 11.8656C4.51328 11.6194 4.375 11.2856 4.375 10.9375V9.1875C4.375 9.07147 4.42109 8.96019 4.50314 8.87814C4.58519 8.79609 4.69647 8.75 4.8125 8.75C4.92853 8.75 5.03981 8.79609 5.12186 8.87814C5.20391 8.96019 5.25 9.07147 5.25 9.1875V10.9375Z" fill="white"/>
<path fill-rule="evenodd" clip-rule="evenodd" d="M0.127555 7.30969C0.0868127 7.26905 0.0544877 7.22077 0.032432 7.16762C0.0103764 7.11447 -0.000976563 7.05749 -0.000976562 6.99994C-0.000976563 6.9424 0.0103764 6.88541 0.032432 6.83226C0.0544877 6.77911 0.0868127 6.73083 0.127555 6.69019L2.75256 4.06519C2.79323 4.02452 2.84152 3.99225 2.89467 3.97023C2.94782 3.94822 3.00478 3.93689 3.06231 3.93689C3.11983 3.93689 3.17679 3.94822 3.22994 3.97023C3.28309 3.99225 3.33138 4.02452 3.37206 4.06519C3.41273 4.10587 3.445 4.15416 3.46701 4.20731C3.48903 4.26045 3.50036 4.31742 3.50036 4.37494C3.50036 4.43247 3.48903 4.48943 3.46701 4.54258C3.445 4.59573 3.41273 4.64402 3.37206 4.68469L1.49343 6.56244H9.1873C9.30334 6.56244 9.41462 6.60854 9.49666 6.69058C9.57871 6.77263 9.6248 6.88391 9.6248 6.99994C9.6248 7.11597 9.57871 7.22725 9.49666 7.3093C9.41462 7.39135 9.30334 7.43744 9.1873 7.43744H1.49343L3.37206 9.31519C3.41273 9.35587 3.445 9.40416 3.46701 9.45731C3.48903 9.51045 3.50036 9.56742 3.50036 9.62494C3.50036 9.68247 3.48903 9.73943 3.46701 9.79258C3.445 9.84572 3.41273 9.89402 3.37206 9.93469C3.33138 9.97537 3.28309 10.0076 3.22994 10.0297C3.17679 10.0517 3.11983 10.063 3.06231 10.063C3.00478 10.063 2.94782 10.0517 2.89467 10.0297C2.84152 10.0076 2.79323 9.97537 2.75256 9.93469L0.127555 7.30969Z" fill="white"/>
</g>
<defs>
<clipPath id="clip0_228_37">
<rect width="14" height="14" fill="white"/>
</clipPath>
</defs>
</svg>
