<svg width="14" height="14" viewBox="0 0 14 14" fill="none" xmlns="http://www.w3.org/2000/svg">
<g clip-path="url(#clip0_232_39)">
<path d="M6.99992 4.15979C6.62693 4.15979 6.2576 4.23326 5.913 4.37599C5.56841 4.51873 5.2553 4.72794 4.99156 4.99168C4.72782 5.25542 4.51861 5.56853 4.37587 5.91312C4.23313 6.25772 4.15967 6.62705 4.15967 7.00004C4.15967 7.37303 4.23313 7.74236 4.37587 8.08696C4.51861 8.43155 4.72782 8.74466 4.99156 9.0084C5.2553 9.27214 5.56841 9.48135 5.913 9.62409C6.2576 9.76682 6.62693 9.84029 6.99992 9.84029C7.7532 9.84029 8.47563 9.54105 9.00828 9.0084C9.54093 8.47575 9.84017 7.75332 9.84017 7.00004C9.84017 6.24676 9.54093 5.52433 9.00828 4.99168C8.47563 4.45903 7.7532 4.15979 6.99992 4.15979ZM5.03467 7.00004C5.03467 6.47882 5.24172 5.97895 5.61028 5.6104C5.97883 5.24184 6.4787 5.03479 6.99992 5.03479C7.52113 5.03479 8.021 5.24184 8.38956 5.6104C8.75812 5.97895 8.96517 6.47882 8.96517 7.00004C8.96517 7.52126 8.75812 8.02113 8.38956 8.38968C8.021 8.75824 7.52113 8.96529 6.99992 8.96529C6.4787 8.96529 5.97883 8.75824 5.61028 8.38968C5.24172 8.02113 5.03467 7.52126 5.03467 7.00004Z" fill="white"/>
<path d="M8.57155 1.17518C8.11043 -0.391074 5.88968 -0.391074 5.42855 1.17518L5.3463 1.4543C5.3141 1.56363 5.25784 1.66437 5.18164 1.74914C5.10544 1.8339 5.01125 1.90054 4.90595 1.94417C4.80065 1.9878 4.68693 2.00731 4.57311 2.00128C4.45929 1.99524 4.34827 1.96382 4.24818 1.9093L3.99268 1.7693C2.55768 0.988801 0.988801 2.55855 1.77018 3.99268L1.9093 4.24818C1.96382 4.34827 1.99524 4.45929 2.00128 4.57311C2.00731 4.68693 1.9878 4.80065 1.94417 4.90595C1.90054 5.01125 1.8339 5.10544 1.74914 5.18164C1.66437 5.25784 1.56363 5.3141 1.4543 5.3463L1.17518 5.42855C-0.391074 5.88968 -0.391074 8.11043 1.17518 8.57155L1.4543 8.6538C1.56363 8.686 1.66437 8.74227 1.74914 8.81846C1.8339 8.89466 1.90054 8.98886 1.94417 9.09415C1.9878 9.19945 2.00731 9.31317 2.00128 9.42699C1.99524 9.54081 1.96382 9.65183 1.9093 9.75193L1.7693 10.0074C0.988801 11.4424 2.55768 13.0122 3.99268 12.2299L4.24818 12.0908C4.34827 12.0363 4.45929 12.0049 4.57311 11.9988C4.68693 11.9928 4.80065 12.0123 4.90595 12.0559C5.01125 12.0996 5.10544 12.1662 5.18164 12.251C5.25784 12.3357 5.3141 12.4365 5.3463 12.5458L5.42855 12.8249C5.88968 14.3912 8.11043 14.3912 8.57155 12.8249L8.6538 12.5458C8.686 12.4365 8.74227 12.3357 8.81846 12.251C8.89466 12.1662 8.98886 12.0996 9.09415 12.0559C9.19945 12.0123 9.31317 11.9928 9.42699 11.9988C9.54081 12.0049 9.65183 12.0363 9.75193 12.0908L10.0074 12.2308C11.4424 13.0122 13.0122 11.4416 12.2299 10.0074L12.0908 9.75193C12.0363 9.65183 12.0049 9.54081 11.9988 9.42699C11.9928 9.31317 12.0123 9.19945 12.0559 9.09415C12.0996 8.98886 12.1662 8.89466 12.251 8.81846C12.3357 8.74227 12.4365 8.686 12.5458 8.6538L12.8249 8.57155C14.3912 8.11043 14.3912 5.88968 12.8249 5.42855L12.5458 5.3463C12.4365 5.3141 12.3357 5.25784 12.251 5.18164C12.1662 5.10544 12.0996 5.01125 12.0559 4.90595C12.0123 4.80065 11.9928 4.68693 11.9988 4.57311C12.0049 4.45929 12.0363 4.34827 12.0908 4.24818L12.2308 3.99268C13.0122 2.55768 11.4416 0.988801 10.0074 1.77018L9.75193 1.9093C9.65183 1.96382 9.54081 1.99524 9.42699 2.00128C9.31317 2.00731 9.19945 1.9878 9.09415 1.94417C8.98886 1.90054 8.89466 1.8339 8.81846 1.74914C8.74227 1.66437 8.686 1.56363 8.6538 1.4543L8.57155 1.17518ZM6.26768 1.4228C6.48293 0.692176 7.51718 0.692176 7.73243 1.4228L7.81468 1.70193C7.88382 1.9365 8.00458 2.15263 8.16811 2.33446C8.33164 2.5163 8.53379 2.65923 8.75974 2.75278C8.98569 2.84633 9.22972 2.88813 9.47392 2.87512C9.71813 2.8621 9.95633 2.79459 10.1711 2.67755L10.4257 2.53755C11.0942 2.17443 11.8257 2.90505 11.4617 3.57443L11.3226 3.82993C11.2057 4.04467 11.1383 4.28285 11.1255 4.527C11.1126 4.77115 11.1545 5.01509 11.2481 5.24094C11.3418 5.46679 11.4847 5.66883 11.6666 5.83225C11.8484 5.99568 12.0645 6.11635 12.2991 6.18543L12.5773 6.26768C13.3079 6.48293 13.3079 7.51718 12.5773 7.73243L12.2982 7.81468C12.0636 7.88382 11.8475 8.00458 11.6656 8.16811C11.4838 8.33164 11.3409 8.53379 11.2473 8.75974C11.1538 8.98569 11.112 9.22972 11.125 9.47392C11.138 9.71813 11.2055 9.95633 11.3226 10.1711L11.4626 10.4257C11.8257 11.0942 11.0951 11.8257 10.4257 11.4617L10.1711 11.3226C9.95627 11.2055 9.71801 11.138 9.47376 11.1251C9.22951 11.1121 8.98545 11.154 8.75948 11.2476C8.53352 11.3413 8.33138 11.4843 8.1679 11.6662C8.00441 11.8482 7.88372 12.0644 7.81468 12.2991L7.73243 12.5773C7.51718 13.3079 6.48293 13.3079 6.26768 12.5773L6.18543 12.2982C6.11625 12.0637 5.99551 11.8477 5.83204 11.666C5.66857 11.4842 5.46652 11.3414 5.24068 11.2478C5.01484 11.1543 4.77094 11.1124 4.52684 11.1254C4.28273 11.1383 4.04462 11.2057 3.82993 11.3226L3.57443 11.4626C2.90593 11.8257 2.17443 11.0951 2.53843 10.4257L2.67755 10.1711C2.79476 9.95629 2.8624 9.71802 2.8755 9.47371C2.8886 9.2294 2.84684 8.98525 2.75328 8.75919C2.65971 8.53312 2.51672 8.33088 2.33479 8.16729C2.15287 8.0037 1.93662 7.88291 1.70193 7.8138L1.4228 7.73155C0.692176 7.5163 0.692176 6.48205 1.4228 6.2668L1.70193 6.18455C1.93626 6.11535 2.15215 5.99462 2.3338 5.83122C2.51545 5.66781 2.65827 5.46585 2.7518 5.24012C2.84533 5.0144 2.8872 4.77062 2.87435 4.52662C2.86151 4.28262 2.79427 4.04458 2.67755 3.82993L2.53755 3.57443C2.17443 2.90593 2.90505 2.17443 3.57443 2.53843L3.82993 2.67755C4.04462 2.79443 4.28273 2.8618 4.52684 2.87473C4.77094 2.88767 5.01484 2.84583 5.24068 2.75229C5.46652 2.65875 5.66857 2.51588 5.83204 2.33413C5.99551 2.15239 6.11625 1.93638 6.18543 1.70193L6.26768 1.4228Z" fill="white"/>
</g>
<defs>
<clipPath id="clip0_232_39">
<rect width="14" height="14" fill="white"/>
</clipPath>
</defs>
</svg>
